<svg width="24" height="24" viewBox="0 0 24 24" fill="none" xmlns="http://www.w3.org/2000/svg">
<mask id="mask0_6203_24531" style="mask-type:alpha" maskUnits="userSpaceOnUse" x="0" y="0" width="24" height="24">
<rect width="24" height="24" fill="#D9D9D9"/>
</mask>
<g mask="url(#mask0_6203_24531)">
<path d="M10.9993 12.999H5.99927C5.71593 12.999 5.47843 12.9032 5.28677 12.7115C5.0951 12.5199 4.99927 12.2824 4.99927 11.999C4.99927 11.7157 5.0951 11.4782 5.28677 11.2865C5.47843 11.0949 5.71593 10.999 5.99927 10.999H10.9993V5.99902C10.9993 5.71569 11.0951 5.47819 11.2868 5.28652C11.4784 5.09486 11.7159 4.99902 11.9993 4.99902C12.2826 4.99902 12.5201 5.09486 12.7118 5.28652C12.9034 5.47819 12.9993 5.71569 12.9993 5.99902V10.999H17.9993C18.2826 10.999 18.5201 11.0949 18.7118 11.2865C18.9034 11.4782 18.9993 11.7157 18.9993 11.999C18.9993 12.2824 18.9034 12.5199 18.7118 12.7115C18.5201 12.9032 18.2826 12.999 17.9993 12.999H12.9993V17.999C12.9993 18.2824 12.9034 18.5199 12.7118 18.7115C12.5201 18.9032 12.2826 18.999 11.9993 18.999C11.7159 18.999 11.4784 18.9032 11.2868 18.7115C11.0951 18.5199 10.9993 18.2824 10.9993 17.999V12.999Z" fill="#121212"/>
</g>
</svg>
