<svg width="64" height="64" viewBox="0 0 64 64" fill="none" xmlns="http://www.w3.org/2000/svg">
<circle cx="32" cy="32" r="32" fill="#E77500"/>
<mask id="mask0_3956_64333" style="mask-type:alpha" maskUnits="userSpaceOnUse" x="8" y="8" width="48" height="48">
<rect x="8" y="8" width="48" height="48" fill="#D9D9D9"/>
</mask>
<g mask="url(#mask0_3956_64333)">
<path d="M27.0994 38.3L44.0494 21.35C44.4494 20.95 44.9161 20.75 45.4494 20.75C45.9828 20.75 46.4494 20.95 46.8494 21.35C47.2494 21.75 47.4494 22.225 47.4494 22.775C47.4494 23.325 47.2494 23.8 46.8494 24.2L28.4994 42.6C28.0994 43 27.6328 43.2 27.0994 43.2C26.5661 43.2 26.0994 43 25.6994 42.6L17.0994 34C16.6994 33.6 16.5078 33.125 16.5244 32.575C16.5411 32.025 16.7494 31.55 17.1494 31.15C17.5494 30.75 18.0244 30.55 18.5744 30.55C19.1244 30.55 19.5994 30.75 19.9994 31.15L27.0994 38.3Z" fill="white"/>
</g>
</svg>
