<svg width="20" height="20" viewBox="0 0 20 20" fill="none" xmlns="http://www.w3.org/2000/svg">
<rect x="-1" y="-2" width="24" height="24" rx="4" fill="white"/>
<path d="M8.725 13.2754L16.2 5.80039C16.3818 5.61706 16.5939 5.52539 16.8363 5.52539C17.0788 5.52539 17.2917 5.61706 17.475 5.80039C17.6583 5.98372 17.75 6.19689 17.75 6.43989C17.75 6.68289 17.6616 6.89281 17.4848 7.06964L9.375 15.2004C9.19317 15.3837 8.98108 15.4754 8.73875 15.4754C8.49625 15.4754 8.28333 15.3837 8.1 15.2004L4.525 11.6254C4.34167 11.4421 4.25 11.2296 4.25 10.9879C4.25 10.7462 4.34167 10.5337 4.525 10.3504C4.70833 10.1671 4.92225 10.0754 5.16675 10.0754C5.41108 10.0754 5.62217 10.1671 5.8 10.3504L8.725 13.2754Z" fill="#006450"/>
</svg>
