<svg width="20" height="20" viewBox="0 0 20 20" fill="none" xmlns="http://www.w3.org/2000/svg">
<path d="M7.49947 13.4732L4.6078 10.5816C4.45199 10.4258 4.24066 10.3382 4.0203 10.3382C3.79995 10.3382 3.58862 10.4258 3.4328 10.5816C3.27699 10.7374 3.18945 10.9487 3.18945 11.1691C3.18945 11.2782 3.21094 11.3862 3.2527 11.487C3.29445 11.5878 3.35565 11.6794 3.4328 11.7566L6.91614 15.2399C7.24114 15.5649 7.76614 15.5649 8.09114 15.2399L16.9078 6.42323C17.0636 6.26742 17.1512 6.05609 17.1512 5.83573C17.1512 5.61538 17.0636 5.40405 16.9078 5.24823C16.752 5.09242 16.5407 5.00488 16.3203 5.00488C16.0999 5.00488 15.8886 5.09242 15.7328 5.24823L7.49947 13.4732Z" fill="white"/>
</svg>
