<svg width="20" height="20" viewBox="0 0 20 20" fill="none" xmlns="http://www.w3.org/2000/svg">
<path d="M7.5 15C7.0875 15 6.73438 14.8531 6.44062 14.5594C6.14687 14.2656 6 13.9125 6 13.5V3.5C6 3.0875 6.14687 2.73438 6.44062 2.44063C6.73438 2.14688 7.0875 2 7.5 2H15.5C15.9125 2 16.2656 2.14688 16.5594 2.44063C16.8531 2.73438 17 3.0875 17 3.5V13.5C17 13.9125 16.8531 14.2656 16.5594 14.5594C16.2656 14.8531 15.9125 15 15.5 15H7.5ZM7.5 13.5H15.5V3.5H7.5V13.5ZM4.5 18C4.0875 18 3.73437 17.8531 3.44062 17.5594C3.14687 17.2656 3 16.9125 3 16.5V5.75C3 5.5375 3.07146 5.35937 3.21437 5.21562C3.35729 5.07187 3.53437 5 3.74562 5C3.95687 5 4.13542 5.07187 4.28125 5.21562C4.42708 5.35937 4.5 5.5375 4.5 5.75V16.5H13.25C13.4625 16.5 13.6406 16.5715 13.7844 16.7144C13.9281 16.8573 14 17.0344 14 17.2456C14 17.4569 13.9281 17.6354 13.7844 17.7812C13.6406 17.9271 13.4625 18 13.25 18H4.5Z" fill="#717171"/>
</svg>
