<svg xmlns="http://www.w3.org/2000/svg" width="25" height="24" viewBox="0 0 25 24" fill="none">
    <path d="M12.6326 17C12.9159 17 13.1534 16.9042 13.3451 16.7125C13.5367 16.5208 13.6326 16.2833 13.6326 16C13.6326 15.7167 13.5367 15.4792 13.3451 15.2875C13.1534 15.0958 12.9159 15 12.6326 15C12.3492 15 12.1117 15.0958 11.9201 15.2875C11.7284 15.4792 11.6326 15.7167 11.6326 16C11.6326 16.2833 11.7284 16.5208 11.9201 16.7125C12.1117 16.9042 12.3492 17 12.6326 17ZM12.6326 13C12.9159 13 13.1534 12.9042 13.3451 12.7125C13.5367 12.5208 13.6326 12.2833 13.6326 12V8C13.6326 7.71667 13.5367 7.47917 13.3451 7.2875C13.1534 7.09583 12.9159 7 12.6326 7C12.3492 7 12.1117 7.09583 11.9201 7.2875C11.7284 7.47917 11.6326 7.71667 11.6326 8V12C11.6326 12.2833 11.7284 12.5208 11.9201 12.7125C12.1117 12.9042 12.3492 13 12.6326 13ZM12.6326 22C11.2492 22 9.94923 21.7375 8.73257 21.2125C7.5159 20.6875 6.45757 19.975 5.55757 19.075C4.65757 18.175 3.94507 17.1167 3.42007 15.9C2.89507 14.6833 2.63257 13.3833 2.63257 12C2.63257 10.6167 2.89507 9.31667 3.42007 8.1C3.94507 6.88333 4.65757 5.825 5.55757 4.925C6.45757 4.025 7.5159 3.3125 8.73257 2.7875C9.94923 2.2625 11.2492 2 12.6326 2C14.0159 2 15.3159 2.2625 16.5326 2.7875C17.7492 3.3125 18.8076 4.025 19.7076 4.925C20.6076 5.825 21.3201 6.88333 21.8451 8.1C22.3701 9.31667 22.6326 10.6167 22.6326 12C22.6326 13.3833 22.3701 14.6833 21.8451 15.9C21.3201 17.1167 20.6076 18.175 19.7076 19.075C18.8076 19.975 17.7492 20.6875 16.5326 21.2125C15.3159 21.7375 14.0159 22 12.6326 22ZM12.6326 20C14.8659 20 16.7576 19.225 18.3076 17.675C19.8576 16.125 20.6326 14.2333 20.6326 12C20.6326 9.76667 19.8576 7.875 18.3076 6.325C16.7576 4.775 14.8659 4 12.6326 4C10.3992 4 8.50757 4.775 6.95757 6.325C5.40757 7.875 4.63257 9.76667 4.63257 12C4.63257 14.2333 5.40757 16.125 6.95757 17.675C8.50757 19.225 10.3992 20 12.6326 20Z" fill="#B00002"/>
</svg>