<svg width="48" height="48" viewBox="0 0 48 48" fill="none" xmlns="http://www.w3.org/2000/svg">
<path d="M40.5 17.1213V39C40.5 39.3978 40.342 39.7794 40.0607 40.0607C39.7794 40.342 39.3978 40.5 39 40.5H9C8.60218 40.5 8.22064 40.342 7.93934 40.0607C7.65804 39.7794 7.5 39.3978 7.5 39V9C7.5 8.60218 7.65804 8.22064 7.93934 7.93934C8.22064 7.65804 8.60218 7.5 9 7.5H30.8787C31.0757 7.5 31.2707 7.5388 31.4527 7.61418C31.6347 7.68956 31.8001 7.80005 31.9393 7.93934L40.0607 16.0607C40.1999 16.1999 40.3104 16.3653 40.3858 16.5473C40.4612 16.7293 40.5 16.9243 40.5 17.1213Z" stroke="white" stroke-width="3" stroke-linecap="round" stroke-linejoin="round"/>
<path d="M24.002 34.502C26.9014 34.502 29.252 32.1514 29.252 29.252C29.252 26.3525 26.9014 24.002 24.002 24.002C21.1025 24.002 18.752 26.3525 18.752 29.252C18.752 32.1514 21.1025 34.502 24.002 34.502Z" stroke="white" stroke-width="3" stroke-linecap="round" stroke-linejoin="round"/>
<path d="M30 18.002H18V7.50195" stroke="white" stroke-width="3" stroke-linecap="round" stroke-linejoin="round"/>
</svg>
