<svg xmlns="http://www.w3.org/2000/svg" width="41" height="40" viewBox="0 0 41 40" fill="none">
  <path d="M3.66667 8.3334L4.66667 6.40006C4.77538 6.18416 4.94075 6.00187 5.14507 5.8727C5.3494 5.74352 5.585 5.67233 5.82667 5.66673H13M13 5.66673C13.2037 5.66637 13.4047 5.71269 13.5878 5.80212C13.7708 5.89155 13.9308 6.02172 14.0557 6.18264C14.1806 6.34356 14.2669 6.53095 14.3081 6.73043C14.3493 6.92991 14.3443 7.13618 14.2933 7.3334L13.2667 11.3334C13.1924 11.6211 13.0241 11.8758 12.7886 12.0569C12.5531 12.2381 12.2638 12.3354 11.9667 12.3334H2.33333C1.97971 12.3334 1.64057 12.1929 1.39052 11.9429C1.14048 11.6928 1 11.3537 1 11.0001V2.3334C1 1.97978 1.14048 1.64064 1.39052 1.39059C1.64057 1.14054 1.97971 1.00006 2.33333 1.00006H4.93333C5.15632 0.997878 5.3763 1.05166 5.57313 1.15648C5.76996 1.2613 5.93736 1.41381 6.06 1.60006L6.6 2.40006C6.72141 2.58442 6.88668 2.73574 7.081 2.84047C7.27532 2.94519 7.49259 3.00003 7.71333 3.00006H11.6667C12.0203 3.00006 12.3594 3.14054 12.6095 3.39059C12.8595 3.64064 13 3.97978 13 4.3334V5.66673Z" stroke="#717171" stroke-width="1.45833" stroke-linecap="round" stroke-linejoin="round"/>
</svg>