<svg width="21" height="18" viewBox="0 0 21 18" fill="none" xmlns="http://www.w3.org/2000/svg">
<g clip-path="url(#clip0_2325_5425)">
<path d="M3.11836 7.86797L0 13.2117V3.375C0 2.13398 1.00898 1.125 2.25 1.125H6.38086C6.97852 1.125 7.55156 1.36055 7.97344 1.78242L8.90508 2.71406C9.32695 3.13594 9.9 3.37148 10.4977 3.37148H14.625C15.866 3.37148 16.875 4.38047 16.875 5.62148V6.74648H5.0625C4.26094 6.74648 3.52266 7.17188 3.11836 7.86445V7.86797ZM4.08867 8.43398C4.29258 8.08594 4.66172 7.875 5.0625 7.875H19.125C19.5293 7.875 19.8984 8.08945 20.0988 8.44102C20.2992 8.79258 20.2992 9.22149 20.0953 9.56953L16.1578 16.3195C15.9574 16.6641 15.5883 16.875 15.1875 16.875H1.125C0.720703 16.875 0.351562 16.6605 0.151172 16.309C-0.0492187 15.9574 -0.0492188 15.5285 0.154688 15.1805L4.09219 8.43047L4.08867 8.43398Z" fill="#121212"/>
</g>
<defs>
<clipPath id="clip0_2325_5425">
<path d="M0 0H20.25V18H0V0Z" fill="white"/>
</clipPath>
</defs>
</svg>
