<svg width="201" height="46" viewBox="0 0 201 46" fill="none" xmlns="http://www.w3.org/2000/svg">
<g clip-path="url(#clip0_149_1482)">
<path d="M38.5675 0.957581H6.06288C2.99059 0.957581 0.5 3.44817 0.5 6.52046V39.4796C0.5 42.5519 2.99059 45.0425 6.06288 45.0425H38.5675C41.6398 45.0425 44.1304 42.5519 44.1304 39.4796V6.52046C44.1304 3.44817 41.6398 0.957581 38.5675 0.957581Z" fill="#EE7623"/>
<mask id="mask0_149_1482" style="mask-type:luminance" maskUnits="userSpaceOnUse" x="1" y="1" width="42" height="42">
<path d="M42.767 1.37115H1.86346V42.2747H42.767V1.37115Z" fill="white"/>
</mask>
<g mask="url(#mask0_149_1482)">
<mask id="mask1_149_1482" style="mask-type:luminance" maskUnits="userSpaceOnUse" x="1" y="1" width="42" height="42">
<path d="M42.767 1.37115H1.86346V42.2747H42.767V1.37115Z" fill="white"/>
</mask>
<g mask="url(#mask1_149_1482)">
<path d="M5.39478 38.9069V10.1154C6.44463 9.77001 7.48994 9.4337 8.38982 8.72925V35.9074C8.46254 35.9119 8.52162 35.921 8.57616 35.921C9.117 35.9301 9.64874 35.8528 10.1805 35.7483C11.3803 35.5074 12.5256 35.1075 13.6437 34.6166C14.2072 34.3712 14.7571 34.1031 15.3116 33.8395C16.1388 33.4395 16.9977 33.1577 17.9113 33.0623C18.8748 32.9623 19.8155 33.0487 20.7109 33.4486C21.0972 33.6213 21.4471 33.8486 21.7425 34.1576C21.988 34.4167 22.1698 34.7121 22.247 35.062C22.2516 35.0893 22.2607 35.112 22.2743 35.1529C22.2879 35.1302 22.297 35.1211 22.297 35.112C22.3697 34.7348 22.5606 34.4212 22.8242 34.1485C23.2242 33.7304 23.7195 33.4622 24.2649 33.285C24.9148 33.0668 25.5875 32.9987 26.2737 33.035C27.3054 33.0896 28.278 33.3713 29.2006 33.8213C30.096 34.2576 30.9958 34.6803 31.9321 35.0302C32.8501 35.3711 33.7864 35.6574 34.759 35.821C35.1634 35.8892 35.5679 35.9346 35.9815 35.9255C36.0361 35.9255 36.086 35.921 36.1315 35.921C36.1451 35.9074 36.1497 35.9028 36.1542 35.8983C36.1542 35.8983 36.1588 35.8892 36.1633 35.8846C36.1633 35.8846 36.1633 35.8755 36.1679 35.871C36.1679 35.8619 36.1679 35.8483 36.1679 35.8392C36.1679 35.8301 36.1679 35.8165 36.1679 35.8074C36.1679 35.7756 36.1679 35.7437 36.1679 35.7119C36.1679 26.745 36.1679 17.7735 36.1679 8.80651C36.1679 8.79742 36.1679 8.78379 36.1679 8.7747C36.1679 8.77015 36.1679 8.76561 36.1769 8.74288C37.0632 9.39279 38.0858 9.71548 39.122 10.0382V38.9206H5.39478V38.9069Z" fill="white"/>
<path d="M11.7848 15.8192C11.5576 13.4422 11.5531 11.0789 11.8576 8.69288C11.9348 8.72924 11.9894 8.75651 12.0439 8.78378C12.7438 9.14282 13.471 9.41551 14.2481 9.55186C15.6752 9.80637 17.025 9.57912 18.2976 8.8974C19.1611 8.43837 19.9065 7.82482 20.5745 7.11128C21.1972 6.44319 21.738 5.71147 22.188 4.91612C22.2016 4.8934 22.2152 4.87068 22.2425 4.82977C22.2789 4.8934 22.3061 4.94339 22.3379 4.98884C23.0242 6.15686 23.865 7.19309 24.9194 8.04752C25.7738 8.74288 26.7237 9.25644 27.8054 9.50186C28.9325 9.75637 30.0414 9.67457 31.1367 9.32007C31.5958 9.17463 32.0321 8.98375 32.4593 8.7656C32.4957 8.74742 32.5366 8.7247 32.5729 8.70652C32.582 8.70652 32.5911 8.70652 32.6275 8.70652C32.932 11.0653 32.9229 13.4241 32.7002 15.7783C32.6865 15.7919 32.682 15.7965 32.6774 15.7965C32.6774 15.7965 32.6684 15.8055 32.6638 15.8055C25.7511 15.8055 18.843 15.8101 11.9303 15.8146C11.8894 15.8146 11.8439 15.8146 11.7758 15.8055" fill="white"/>
<path d="M16.7251 28.3948C15.7797 27.1449 14.9889 25.8269 14.3345 24.4498C16.9841 21.8002 19.6201 19.1642 22.2516 16.5282C24.8739 19.1551 27.5054 21.7911 30.146 24.4362C30.0005 24.9907 28.3371 27.7494 27.7554 28.3811C26.8373 27.4631 25.9193 26.5496 25.0057 25.6315C24.0877 24.7134 23.1696 23.7999 22.247 22.8728C20.4064 24.7134 18.5748 26.545 16.7296 28.3902" fill="white"/>
</g>
</g>
<path d="M54.4472 13.8013H53.061V2.74371H56.9832C58.2103 2.74371 59.1148 3.07549 59.6965 3.74358C60.2782 4.41167 60.5691 5.17065 60.5691 6.02508C60.5691 6.97495 60.251 7.76121 59.6192 8.38385C58.983 9.0065 58.1558 9.31554 57.1287 9.31554H54.4472V13.8013ZM54.4472 8.16116H56.9923C57.6468 8.16116 58.174 7.96573 58.5739 7.57487C58.9739 7.18402 59.1738 6.66591 59.1738 6.02508C59.1738 5.47516 58.9966 4.98432 58.6375 4.55256C58.283 4.1208 57.7649 3.90265 57.0923 3.90265H54.4518V8.16116H54.4472Z" fill="white"/>
<path d="M64.0595 13.8013H62.787V5.62058H63.905V7.53395C64.3004 6.63407 64.6958 6.04779 65.0912 5.77965C65.4866 5.5115 65.8957 5.3797 66.3092 5.3797C66.441 5.3797 66.6046 5.38879 66.8092 5.41151V6.62498H66.5501C65.8502 6.62498 65.2639 6.88858 64.8003 7.41124C64.3368 7.9339 64.0868 8.62471 64.055 9.4746V13.8013H64.0595Z" fill="white"/>
<path d="M70.1314 2.74371V4.1617H68.7634V2.74371H70.1314ZM70.0905 5.62059V13.8013H68.818V5.62059H70.0905Z" fill="white"/>
<path d="M79.6392 13.8013H78.4485V8.54294C78.4485 7.7885 78.2849 7.25675 77.9531 6.94771C77.6259 6.63866 77.2259 6.48413 76.7533 6.48413C76.1034 6.48413 75.5625 6.74319 75.1217 7.2613C74.6808 7.77941 74.4627 8.46113 74.4627 9.31102V13.7968H73.1901V5.62061H74.3718V7.12495C75.0353 5.97057 75.8988 5.39337 76.9578 5.39337C77.5668 5.39337 78.0895 5.55244 78.5167 5.86603C78.9439 6.18417 79.2393 6.53867 79.3984 6.92953C79.5574 7.32493 79.6392 8.03847 79.6392 9.07014V13.8013Z" fill="white"/>
<path d="M87.5791 10.9335L88.7289 11.138C88.5653 12.0425 88.2062 12.7515 87.6518 13.2605C87.0973 13.774 86.4019 14.0286 85.5702 14.0286C84.4431 14.0286 83.5842 13.6104 82.9888 12.7787C82.398 11.947 82.1025 10.929 82.1025 9.72914C82.1025 8.52931 82.4161 7.45218 83.0388 6.62957C83.6614 5.80695 84.5113 5.39337 85.5884 5.39337C86.4792 5.39337 87.1927 5.66152 87.729 6.19326C88.2653 6.72501 88.6017 7.41128 88.7289 8.25662L87.5791 8.47477C87.3655 7.12495 86.711 6.44777 85.6248 6.44777C84.9249 6.44777 84.384 6.74773 84.0068 7.34311C83.6296 7.93848 83.4387 8.71565 83.4387 9.66552C83.4387 10.7154 83.6251 11.5289 84.0023 12.1061C84.375 12.6878 84.9022 12.9787 85.5839 12.9787C86.6337 12.9787 87.3018 12.297 87.5791 10.9381V10.9335Z" fill="white"/>
<path d="M96.437 11.3607L97.6186 11.6016C97.405 12.3015 96.9823 12.8787 96.3552 13.3377C95.728 13.7968 94.9917 14.024 94.1418 14.024C93.0238 14.024 92.1194 13.6332 91.4286 12.8424C90.7377 12.0561 90.3923 11.0244 90.3923 9.74732C90.3923 8.47022 90.7514 7.39309 91.4695 6.58866C92.1875 5.78422 93.0874 5.38428 94.1736 5.38428C95.2599 5.38428 96.1052 5.75241 96.7551 6.49322C97.405 7.23403 97.7368 8.33842 97.755 9.81549H91.8103C91.8103 11.0517 92.0694 11.8879 92.5875 12.3197C93.1056 12.7515 93.6555 12.9696 94.2327 12.9696C95.2735 12.9696 96.0098 12.4333 96.437 11.3562V11.3607ZM96.3642 8.87471C96.3552 8.41568 96.2779 8.00665 96.137 7.65215C95.9961 7.29765 95.7598 6.99315 95.4235 6.74318C95.0872 6.49322 94.6872 6.36596 94.2145 6.36596C93.5828 6.36596 93.0465 6.5932 92.6057 7.04769C92.1648 7.50217 91.9194 8.11118 91.8649 8.87926H96.3597L96.3642 8.87471Z" fill="white"/>
<path d="M103.863 12.9333V13.9377C103.413 13.9967 103.027 14.0286 102.695 14.0286C101.114 14.0286 100.323 13.2014 100.323 11.5471V6.61593H98.8729V5.62061H100.323L100.377 3.5618L101.559 3.44818V5.62061H103.39V6.61593H101.559V11.7561C101.559 12.6015 101.995 13.0196 102.872 13.0196C103.163 13.0196 103.495 12.9878 103.859 12.9287L103.863 12.9333Z" fill="white"/>
<path d="M108.499 14.0286C107.376 14.0286 106.499 13.6104 105.872 12.7787C105.245 11.947 104.927 10.9153 104.927 9.6837C104.927 8.37933 105.281 7.33856 105.986 6.56139C106.695 5.78423 107.572 5.39337 108.626 5.39337C109.753 5.39337 110.644 5.80241 111.294 6.62048C111.944 7.43855 112.271 8.46113 112.271 9.68824C112.271 10.9153 111.921 12.0061 111.217 12.8151C110.517 13.6241 109.608 14.0286 108.494 14.0286H108.499ZM108.599 12.9742C109.249 12.9742 109.79 12.706 110.226 12.1743C110.662 11.638 110.88 10.8063 110.88 9.67915C110.88 8.55203 110.649 7.72487 110.19 7.21131C109.731 6.70228 109.194 6.44777 108.576 6.44777C107.958 6.44777 107.408 6.70683 106.972 7.22039C106.536 7.73396 106.313 8.55203 106.313 9.67006C106.313 10.8517 106.531 11.6971 106.972 12.2106C107.408 12.7196 107.949 12.9742 108.59 12.9742H108.599Z" fill="white"/>
<path d="M121.197 13.8013H120.006V8.54294C120.006 7.7885 119.843 7.25675 119.511 6.94771C119.184 6.63866 118.784 6.48413 118.311 6.48413C117.661 6.48413 117.12 6.74319 116.68 7.2613C116.239 7.77941 116.021 8.46113 116.021 9.31102V13.7968H114.748V5.62061H115.93V7.12495C116.593 5.97057 117.457 5.39337 118.516 5.39337C119.125 5.39337 119.643 5.55244 120.075 5.86603C120.506 6.18417 120.797 6.53867 120.956 6.92953C121.115 7.32493 121.197 8.03847 121.197 9.07014V13.8013Z" fill="white"/>
<path d="M135.432 2.74371H136.581V9.96546C136.581 11.4153 136.227 12.4515 135.518 13.0832C134.809 13.7149 133.877 14.0285 132.727 14.0285C131.446 14.0285 130.5 13.7059 129.882 13.0559C129.264 12.406 128.96 11.3789 128.96 9.96546V2.74371H130.346V9.96546C130.346 10.8244 130.446 11.4289 130.646 11.7834C130.846 12.1333 131.146 12.3924 131.555 12.5606C131.959 12.7287 132.382 12.8105 132.827 12.8105C133.682 12.8105 134.327 12.5878 134.773 12.1379C135.213 11.6879 135.436 10.9653 135.436 9.96546V2.74371H135.432Z" fill="white"/>
<path d="M145.998 13.8013H144.808V8.54294C144.808 7.7885 144.644 7.25675 144.312 6.94771C143.985 6.63866 143.585 6.48413 143.112 6.48413C142.462 6.48413 141.922 6.74319 141.481 7.2613C141.04 7.77941 140.822 8.46113 140.822 9.31102V13.7968H139.549V5.62061H140.731V7.12495C141.394 5.97057 142.258 5.39337 143.317 5.39337C143.926 5.39337 144.444 5.55244 144.876 5.86603C145.308 6.18417 145.598 6.53867 145.757 6.92953C145.916 7.32493 145.998 8.03847 145.998 9.07014V13.8013Z" fill="white"/>
<path d="M150.42 2.74371V4.1617H149.052V2.74371H150.42ZM150.38 5.62059V13.8013H149.107V5.62059H150.38Z" fill="white"/>
<path d="M159.474 5.62061L156.647 13.8013H155.338L152.407 5.62061H153.82L156.097 12.2697L158.347 5.62061H159.478H159.474Z" fill="white"/>
<path d="M166.664 11.3607L167.845 11.6016C167.632 12.3015 167.209 12.8787 166.582 13.3377C165.955 13.7968 165.219 14.024 164.369 14.024C163.251 14.024 162.346 13.6332 161.655 12.8424C160.965 12.0561 160.619 11.0244 160.619 9.74732C160.619 8.47022 160.978 7.39309 161.696 6.58866C162.414 5.78422 163.314 5.38428 164.4 5.38428C165.487 5.38428 166.332 5.75241 166.982 6.49322C167.632 7.23403 167.964 8.33842 167.982 9.81549H162.037C162.037 11.0517 162.296 11.8879 162.814 12.3197C163.332 12.7515 163.882 12.9696 164.46 12.9696C165.5 12.9696 166.237 12.4333 166.664 11.3562V11.3607ZM166.591 8.87471C166.582 8.41568 166.505 8.00665 166.364 7.65215C166.223 7.29765 165.987 6.99315 165.65 6.74318C165.314 6.49322 164.914 6.36596 164.441 6.36596C163.81 6.36596 163.273 6.5932 162.832 7.04769C162.392 7.50217 162.146 8.11118 162.092 8.87926H166.587L166.591 8.87471Z" fill="white"/>
<path d="M171.731 13.8013H170.459V5.62058H171.577V7.53395C171.972 6.63407 172.367 6.04779 172.763 5.77965C173.158 5.5115 173.567 5.3797 173.981 5.3797C174.113 5.3797 174.276 5.38879 174.485 5.41151V6.62498H174.226C173.526 6.62498 172.94 6.88858 172.477 7.41124C172.013 7.9339 171.763 8.62471 171.731 9.4746V13.8013Z" fill="white"/>
<path d="M175.485 11.6788L176.699 11.4289C176.967 12.4606 177.821 12.9741 179.257 12.9741C179.785 12.9741 180.235 12.856 180.603 12.6196C180.971 12.3833 181.153 12.047 181.153 11.6152C181.153 10.9744 180.685 10.5654 179.753 10.3927L178.03 10.0654C177.358 9.93363 176.817 9.68366 176.417 9.3019C176.017 8.92468 175.817 8.42474 175.817 7.8021C175.817 7.11583 176.09 6.54318 176.635 6.07961C177.18 5.61604 177.912 5.38879 178.839 5.38879C180.616 5.38879 181.712 6.08415 182.125 7.47033L180.957 7.72029C180.621 6.86587 179.935 6.43865 178.894 6.43865C178.376 6.43865 177.949 6.54318 177.617 6.75679C177.285 6.9704 177.117 7.26581 177.117 7.65212C177.117 8.25658 177.54 8.63835 178.389 8.79288L179.985 9.0792C181.653 9.3837 182.489 10.1927 182.489 11.5061C182.489 12.256 182.18 12.865 181.557 13.3286C180.935 13.7922 180.107 14.024 179.076 14.024C177.135 14.024 175.94 13.2423 175.481 11.6743L175.485 11.6788Z" fill="white"/>
<path d="M186.157 2.74371V4.1617H184.789V2.74371H186.157ZM186.116 5.62059V13.8013H184.843V5.62059H186.116Z" fill="white"/>
<path d="M192.928 12.9333V13.9377C192.478 13.9967 192.092 14.0286 191.76 14.0286C190.179 14.0286 189.388 13.2014 189.388 11.5471V6.61593H187.938V5.62061H189.388L189.442 3.5618L190.624 3.44818V5.62061H192.456V6.61593H190.624V11.7561C190.624 12.6015 191.06 13.0196 191.938 13.0196C192.228 13.0196 192.56 12.9878 192.928 12.9287V12.9333Z" fill="white"/>
<path d="M200.5 5.62061L197.219 14.7603C196.741 16.0783 195.982 16.7373 194.942 16.7373C194.61 16.7373 194.246 16.6827 193.846 16.5691V15.5738C194.174 15.6511 194.46 15.6874 194.696 15.6874C195.101 15.6874 195.442 15.5692 195.714 15.3375C195.987 15.1057 196.26 14.5376 196.528 13.6377L193.696 5.62515H194.987L197.182 11.7743L199.418 5.62515H200.491L200.5 5.62061Z" fill="white"/>
<path d="M53.2383 20.5504H56.6105V39.2251H66.6001V42.1838H53.2383V20.5504Z" fill="white"/>
<path d="M73.9491 20.5504H77.2896V42.1838H73.9491V20.5504Z" fill="white"/>
<path d="M85.8793 20.5504H93.7373C97.7776 20.5504 99.8455 23 99.8455 25.9905C99.8455 28.0584 98.7957 29.5219 96.9187 30.1581C99.8137 30.8262 101.341 32.8941 101.341 35.6619C101.341 39.3841 98.8593 42.1838 94.3099 42.1838H85.8793V20.5504ZM93.5828 28.981C95.587 28.981 96.5415 27.8675 96.5415 26.245C96.5415 24.6225 95.6189 23.509 93.5191 23.509H89.2561V28.981H93.5828ZM94.1236 39.2251C96.7323 39.2251 97.9731 37.698 97.9731 35.5347C97.9731 33.3713 96.6369 31.8443 93.9645 31.8443H89.2561V39.2251H94.1236Z" fill="white"/>
<path d="M123.52 42.1838H119.638L115.757 36.4891C115.153 36.5527 114.548 36.6163 113.944 36.6163H111.908V42.1838H108.535V20.5504H113.944C119.925 20.5504 123.265 23.6681 123.265 28.6311C123.265 31.9715 121.77 34.2621 118.938 35.5029L123.52 42.1838ZM113.812 33.7213C118.107 33.7213 119.825 31.8443 119.825 28.6311C119.825 25.4179 118.043 23.509 113.812 23.509H111.903V33.7213H113.812Z" fill="white"/>
<path d="M138.468 20.3276H138.849L148.33 42.1837H144.83L143.59 39.1296H133.695L132.455 42.1837H129.21L138.468 20.3276ZM142.385 36.2982L139.681 29.5537C139.14 28.2811 138.599 26.3405 138.599 26.3405C138.599 26.3405 138.09 28.2811 137.549 29.5537L134.845 36.2982H142.385Z" fill="white"/>
<path d="M170.122 42.1838H166.241L162.36 36.4891C161.755 36.5527 161.151 36.6163 160.546 36.6163H158.51V42.1838H155.138V20.5504H160.546C166.527 20.5504 169.868 23.6681 169.868 28.6311C169.868 31.9715 168.373 34.2621 165.541 35.5029L170.122 42.1838ZM160.419 33.7213C164.714 33.7213 166.432 31.8443 166.432 28.6311C166.432 25.4179 164.65 23.509 160.419 23.509H158.51V33.7213H160.419Z" fill="white"/>
<path d="M183.389 35.3438L175.181 20.5504H178.903L183.802 29.4582C184.47 30.6672 185.107 32.576 185.107 32.576C185.107 32.576 185.775 30.6672 186.411 29.4582L191.151 20.5504H194.619L186.761 35.1529V42.1838H183.389V35.3438Z" fill="white"/>
</g>
<defs>
<clipPath id="clip0_149_1482">
<rect width="200" height="44.0849" fill="white" transform="translate(0.5 0.957581)"/>
</clipPath>
</defs>
</svg>
