<svg width="359" height="46" viewBox="0 0 359 46" fill="none" xmlns="http://www.w3.org/2000/svg">
<rect x="179.287" y="4.50616" width="1.56094" height="37.4626" fill="white"/>
<g clip-path="url(#clip0_149_2387)">
<path d="M53.4556 11.1809C53.4556 13.7101 51.6246 14.3201 48.8335 14.3201H46.5662V14.582C46.5662 18.4716 46.5662 19.4658 48.3972 19.4658C48.4844 19.4658 48.5717 19.5531 48.5717 19.6404V19.9022C48.5717 19.9895 48.4844 20.0768 48.3972 20.0768C46.3043 20.0246 44.1242 20.0246 42.0305 20.0768C41.9432 20.0768 41.856 19.9895 41.856 19.9022V19.6404C41.856 19.5531 41.9261 19.4658 42.0305 19.4658C43.8624 19.4658 43.8624 18.5067 43.8624 14.582V13.361C43.8624 9.47137 43.8624 8.47714 42.0305 8.47714C41.9432 8.47714 41.856 8.38987 41.856 8.30259V8.04076C41.856 7.95349 41.9432 7.86621 42.0305 7.86621H49.269C52.4955 7.86621 53.4547 9.17445 53.4547 11.18L53.4556 11.1809ZM48.3099 13.6228C49.269 13.6228 50.5773 13.1001 50.5773 11.1809C50.5773 9.69811 50.0545 8.56442 48.0481 8.56442H46.5653V13.6228H48.309H48.3099Z" fill="white"/>
<path d="M66.6585 11.1809C66.6585 13.0992 64.8797 13.9369 62.9084 13.972C65.0714 14.3903 66.3445 16.1871 66.8331 18.3322C66.9555 18.8729 67.6357 19.4487 68.4904 19.4658C68.5948 19.4658 68.665 19.536 68.665 19.6404V19.9022C68.665 19.9895 68.5948 20.0768 68.4904 20.0768H64.3912C64.2346 20.0768 64.042 19.9373 64.042 19.7277C63.5364 14.4956 61.4607 14.3211 60.3792 14.3211H59.7691V14.5829C59.7691 18.4725 59.7691 19.4667 61.6001 19.4667C61.7045 19.4667 61.7747 19.5369 61.7747 19.6413V19.9031C61.7747 19.9904 61.7045 20.0777 61.6001 20.0777C59.5073 20.0255 57.3272 20.0255 55.2344 20.0777C55.13 20.0777 55.0598 20.0255 55.0598 19.9031V19.6413C55.0598 19.5711 55.13 19.4667 55.2344 19.4667C57.0654 19.4667 57.0654 18.5076 57.0654 14.5829V13.3619C57.0654 9.47229 57.0654 8.47806 55.2344 8.47806C55.13 8.47806 55.0598 8.40788 55.0598 8.30351V8.04168C55.0598 7.9544 55.13 7.86713 55.2344 7.86713H62.4729C65.6994 7.86713 66.6585 9.17537 66.6585 11.1809ZM61.6874 13.6228C62.3847 13.6228 63.7802 13.1001 63.7802 11.1809C63.7802 10.2218 63.3969 8.56443 61.251 8.56443H59.7682V13.6228H61.6865H61.6874Z" fill="white"/>
<path d="M78.3618 8.04168V8.30351C78.3618 8.39078 78.2745 8.47806 78.1872 8.47806C76.1817 8.47806 75.9199 9.4201 75.9199 13.3619V14.5829C75.9199 18.5076 76.1817 19.4667 78.1872 19.4667C78.2745 19.4667 78.3618 19.554 78.3618 19.6413V19.9031C78.3618 19.9904 78.2745 20.0777 78.1872 20.0777H70.9487C70.8614 20.0777 70.7742 19.9904 70.7742 19.9031V19.6413C70.7742 19.554 70.8614 19.4667 70.9487 19.4667C72.9543 19.4667 73.2161 18.4896 73.2161 14.5829V13.3619C73.2161 9.45519 72.9543 8.47806 70.9487 8.47806C70.8444 8.47806 70.7742 8.39078 70.7742 8.30351V8.04168C70.7742 7.93731 70.8444 7.86713 70.9487 7.86713C73.3907 7.91931 75.7453 7.86713 78.1872 7.86713C78.2745 7.86713 78.3618 7.9544 78.3618 8.04168Z" fill="white"/>
<path d="M95.4471 8.04168V8.30351C95.4471 8.39078 95.3598 8.47806 95.2726 8.47806C94.2433 8.47806 93.0052 8.73989 93.0052 11.0073V19.9022C93.0052 19.9895 92.9179 20.0768 92.8306 20.0768H92.4815C92.3943 20.0768 92.307 20.0768 92.2197 19.9895L84.2839 10.92V16.9375C84.2839 19.2049 85.5219 19.4667 86.5513 19.4667C86.6385 19.4667 86.7258 19.554 86.7258 19.6413V19.9031C86.7258 20.0075 86.6556 20.0777 86.5513 20.0777C84.8075 20.0255 83.0629 20.0255 81.3192 20.0777C81.2148 20.0777 81.1447 20.0075 81.1447 19.9031V19.6413C81.1447 19.554 81.2319 19.4667 81.3192 19.4667C82.3485 19.4667 83.5866 19.2049 83.5866 16.9375V10.3972C82.9586 9.47319 82.2262 8.58333 81.4065 8.47896C81.3192 8.47896 81.2319 8.39168 81.2319 8.30441V8.04258C81.2319 7.93821 81.3021 7.86803 81.4065 7.86803H85.3312C85.4185 7.86803 85.5229 7.86803 85.593 7.9553L92.3079 16.0657V11.0073C92.3079 8.73989 91.0698 8.47806 90.0405 8.47806C89.9532 8.47806 89.866 8.39078 89.866 8.30351V8.04168C89.866 7.93731 89.9361 7.86713 90.0405 7.86713C91.7851 7.91931 93.5288 7.91931 95.2735 7.86713C95.3778 7.86713 95.448 7.93731 95.448 8.04168H95.4471Z" fill="white"/>
<path d="M107.204 7.95435L107.379 8.04163C107.728 8.21618 107.658 8.25127 107.641 8.39073C107.397 10.1695 107.658 10.5888 107.728 11.53C107.728 11.7045 107.693 11.8611 107.553 11.9664C107.239 12.158 106.943 12.1409 106.856 11.7918C106.263 9.48933 104.711 8.21618 103.193 8.21618C100.612 8.26837 99.6175 10.9199 99.6175 14.1465C99.6175 17.0248 100.838 19.3794 103.629 19.3794C105.373 19.3794 106.42 18.2457 106.942 17.5484C107.204 17.1993 107.814 17.4611 107.727 17.8102C105.721 22.0832 96.3721 21.0197 96.3901 14.1474C96.373 10.0832 98.7969 7.4325 102.582 7.4325C104.623 7.4325 105.687 8.23507 106.332 8.74074L106.769 8.1307C106.926 7.92106 107.031 7.86888 107.205 7.95615L107.204 7.95435Z" fill="white"/>
<path d="M122.152 16.5875H121.803C121.628 16.5875 121.541 16.6748 121.454 16.8493C120.738 18.9944 119.569 19.4658 117.791 19.4658H117.442C115.366 19.4658 114.912 19.0124 114.912 16.2393V14.321H116.046C116.656 14.321 117.964 14.4083 117.964 16.4139C117.964 16.5011 118.052 16.5884 118.139 16.5884H118.401C118.488 16.5884 118.575 16.5011 118.575 16.4139C118.523 14.7565 118.523 13.1873 118.575 11.53C118.575 11.4427 118.488 11.3555 118.401 11.3555H118.139C118.052 11.3555 117.964 11.4427 117.964 11.53C117.964 13.5356 116.656 13.6228 116.046 13.6228H114.912V9.69811C114.912 8.68679 115.069 8.49424 115.784 8.47714C117.79 8.49424 119.551 8.66879 120.319 10.6572C120.389 10.8318 120.493 10.9191 120.668 10.9191H121.017C121.104 10.9191 121.192 10.8318 121.192 10.7445L121.017 8.04076C121.017 7.95349 120.93 7.86621 120.843 7.86621H110.378C110.29 7.86621 110.203 7.95349 110.203 8.04076V8.30259C110.203 8.38987 110.29 8.47714 110.378 8.47714C112.209 8.47714 112.209 9.43628 112.209 13.361V14.582C112.209 18.5067 112.209 19.4658 110.378 19.4658C110.29 19.4658 110.203 19.5531 110.203 19.6404V19.9022C110.203 19.9895 110.29 20.0768 110.378 20.0768H122.151C122.238 20.0768 122.325 19.9895 122.325 19.9022V16.763C122.325 16.6757 122.238 16.5884 122.151 16.5884L122.152 16.5875Z" fill="white"/>
<path d="M136.699 8.04168V11.2682C136.699 11.3555 136.612 11.4427 136.524 11.4427H136.263C136.175 11.4427 136.071 11.4598 136.001 11.2682C135.6 10.1345 134.919 8.47716 132.6 8.47716H131.815V14.582C131.815 18.4887 132.059 19.4658 134.083 19.4658C134.17 19.4658 134.257 19.5531 134.257 19.6404V19.9022C134.257 19.9895 134.17 20.0768 134.083 20.0768C131.641 20.0246 129.286 20.0246 126.844 20.0768C126.757 20.0768 126.669 19.9895 126.669 19.9022V19.6404C126.669 19.5531 126.757 19.4658 126.844 19.4658C128.868 19.4658 129.111 18.4887 129.111 14.582V8.47716H128.327C126.024 8.47716 125.344 10.1345 124.926 11.2682C124.856 11.4427 124.751 11.4427 124.664 11.4427H124.402C124.315 11.4427 124.228 11.3555 124.228 11.2682V8.04168C124.228 7.9544 124.315 7.86713 124.402 7.86713H136.524C136.612 7.86713 136.699 7.9544 136.699 8.04168Z" fill="white"/>
<path d="M144.934 7.43073C148.353 7.46582 151.493 10.4305 151.475 13.8838C151.492 17.3721 148.353 20.3368 144.934 20.3368C141.516 20.3017 138.376 17.337 138.394 13.8838C138.377 10.3954 141.516 7.43073 144.934 7.43073ZM144.934 19.6395C148.057 19.6224 148.3 15.2271 148.248 13.8838C148.265 12.8544 148.057 8.18022 144.934 8.12803C141.812 8.14513 141.603 12.8202 141.621 13.8838C141.568 15.192 141.812 19.5873 144.934 19.6395Z" fill="white"/>
<path d="M167.287 8.04168V8.30351C167.287 8.39078 167.2 8.47806 167.112 8.47806C166.083 8.47806 164.845 8.73989 164.845 11.0073V19.9022C164.845 19.9895 164.758 20.0768 164.67 20.0768H164.321C164.234 20.0768 164.147 20.0768 164.059 19.9895L156.124 10.92V16.9375C156.124 19.2049 157.362 19.4667 158.391 19.4667C158.478 19.4667 158.566 19.554 158.566 19.6413V19.9031C158.566 20.0075 158.495 20.0777 158.391 20.0777C156.647 20.0255 154.903 20.0255 153.159 20.0777C153.055 20.0777 152.984 20.0075 152.984 19.9031V19.6413C152.984 19.554 153.072 19.4667 153.159 19.4667C154.188 19.4667 155.426 19.2049 155.426 16.9375V10.3972C154.798 9.47319 154.066 8.58333 153.246 8.47896C153.159 8.47896 153.072 8.39168 153.072 8.30441V8.04258C153.072 7.93821 153.142 7.86803 153.246 7.86803H157.171C157.258 7.86803 157.363 7.86803 157.433 7.9553L164.148 16.0657V11.0073C164.148 8.73989 162.91 8.47806 161.88 8.47806C161.793 8.47806 161.706 8.39078 161.706 8.30351V8.04168C161.706 7.93731 161.776 7.86713 161.88 7.86713C163.625 7.91931 165.369 7.91931 167.113 7.86713C167.218 7.86713 167.288 7.93731 167.288 8.04168H167.287Z" fill="white"/>
<path d="M55.0346 26.1249V26.3867C55.0346 26.474 55.0346 26.5612 54.8601 26.5612C53.5509 26.5612 53.2891 27.1722 53.2891 28.394V33.2815C53.2891 36.3362 52.4164 38.3435 48.4017 38.3435C44.9979 38.3435 43.776 36.3362 43.776 33.2815V28.394C43.776 26.6485 43.4269 26.5612 42.0305 26.5612C41.9432 26.5612 41.856 26.474 41.856 26.3867V26.1249C41.856 26.0547 41.9432 25.9503 42.0305 25.9503C43.776 26.0025 45.2597 26.0025 47.0916 25.9503C47.2662 25.9503 47.2662 26.0376 47.2662 26.1249V26.3867C47.2662 26.474 47.2662 26.5612 47.0916 26.5612C45.6952 26.5612 45.2588 26.6485 45.2588 28.394V32.6706C45.2588 35.1143 45.6781 37.1217 48.9244 37.1217C52.1707 37.1217 52.6773 35.1143 52.6773 32.6706V28.394C52.6773 26.6485 51.3681 26.5612 50.1463 26.5612C49.9717 26.5612 49.9717 26.474 49.9717 26.3867V26.1249C49.9717 26.0376 49.9717 25.9503 50.1463 25.9503C52.59 26.0025 53.2882 26.0025 54.8592 25.9503C55.0337 25.9503 55.0337 26.0205 55.0337 26.1249H55.0346Z" fill="white"/>
<path d="M70.9324 26.1249V26.3867C70.9324 26.474 70.9324 26.5612 70.7578 26.5612C69.536 26.5612 68.5759 26.8231 68.5759 29.0923V37.9935C68.5759 38.1099 68.5468 38.1681 68.4886 38.1681H68.0523C67.965 38.1681 68.0523 38.0808 59.7619 28.5686V35.1134C59.7619 37.2953 60.6347 37.5571 61.9438 37.5571C62.1184 37.5571 62.1184 37.6444 62.1184 37.7317V37.9935C62.1184 38.0808 62.1184 38.1681 61.9438 38.1681C59.7619 38.1159 59.151 38.1159 56.9691 38.1681C56.7946 38.1681 56.7946 38.0808 56.7946 37.9935V37.7317C56.7946 37.6444 56.7946 37.5571 56.9691 37.5571C58.3655 37.5571 59.151 37.2953 59.151 35.1134V27.9577C58.5401 27.0849 58.2782 26.5612 57.1437 26.5612C56.9691 26.5612 56.9691 26.474 56.9691 26.3867V26.1249C56.9691 26.0376 56.9691 25.9503 57.1437 25.9503H59.6747C59.7619 25.9503 59.8492 25.9503 59.9365 26.0376L67.965 35.5498V29.0923C67.965 26.8231 67.0049 26.5612 65.7831 26.5612C65.6085 26.5612 65.6085 26.474 65.6085 26.3867V26.1249C65.6085 26.0376 65.6085 25.9503 65.7831 25.9503C67.965 26.0025 68.5759 26.0025 70.7578 25.9503C70.9324 25.9503 70.9324 26.0376 70.9324 26.1249Z" fill="white"/>
<path d="M79.185 26.1249V26.3867C79.185 26.474 79.185 26.5612 79.0104 26.5612C77.0031 26.5612 76.8285 26.6485 76.8285 31.4487V32.6706C76.8285 37.558 77.0031 37.558 79.0104 37.558C79.185 37.558 79.185 37.6453 79.185 37.7326V37.9944C79.185 38.0817 79.185 38.169 79.0104 38.169C76.5667 38.1168 75.6067 38.1168 73.163 38.169C72.9884 38.169 72.9884 38.0817 72.9884 37.9944V37.7326C72.9884 37.6453 72.9884 37.558 73.163 37.558C75.1703 37.558 75.3449 37.558 75.3449 32.6706V31.4487C75.3449 26.6485 75.1703 26.5612 73.163 26.5612C72.9884 26.5612 72.9884 26.474 72.9884 26.3867V26.1249C72.9884 26.0205 72.9884 25.9503 73.163 25.9503C75.694 26.0025 76.5667 26.0025 79.0104 25.9503C79.185 25.9503 79.185 26.0376 79.185 26.1249Z" fill="white"/>
<path d="M93.7987 26.1249V26.3867C93.7987 26.474 93.7987 26.5612 93.6242 26.5612C92.4896 26.5612 92.1054 27.1722 91.6168 28.394L87.7767 37.9935C87.7065 38.1681 87.6894 38.1681 87.6021 38.1681H87.3403C87.253 38.1681 87.2359 38.1681 87.1657 37.9935L83.3256 28.394C82.7848 27.0327 82.6103 26.5612 81.3182 26.5612C81.1437 26.5612 81.1437 26.474 81.1437 26.3867V26.1249C81.1437 26.0376 81.1437 25.9503 81.3182 25.9503C82.6274 26.0025 84.2856 25.9854 86.3802 25.9503C86.5548 25.9503 86.5548 26.0547 86.5548 26.1249V26.3867C86.5548 26.474 86.5548 26.5612 86.3802 26.5612C84.2856 26.5612 84.5474 27.1722 85.0711 28.394C85.4724 29.319 86.4675 31.85 88.0385 35.7243L91.0059 28.394C91.1804 27.9748 91.7041 26.5612 89.6094 26.5612C89.4349 26.5612 89.4349 26.474 89.4349 26.3867V26.1249C89.4349 26.0376 89.4349 25.9503 89.6094 25.9503C91.7041 26.0025 92.9259 25.9503 93.6242 25.9503C93.7987 25.9503 93.7987 26.0205 93.7987 26.1249Z" fill="white"/>
<path d="M106.707 34.6779H106.533C106.271 34.6779 106.254 34.7652 106.184 34.9397C105.486 36.9471 106.026 37.558 102.169 37.558H101.471C99.3763 37.558 99.2018 37.3835 99.2018 34.8525V32.3215H100.424C101.035 32.3215 102.344 32.496 102.344 34.5034C102.344 34.6779 102.431 34.6779 102.518 34.6779H102.78C102.867 34.6779 102.955 34.6779 102.955 34.5034V29.6159C102.955 29.4414 102.867 29.4414 102.78 29.4414H102.518C102.431 29.4414 102.344 29.4414 102.344 29.6159C102.344 31.6233 101.035 31.7105 100.424 31.7105H99.2018V27.5213C99.2018 26.788 99.3592 26.5783 100.528 26.5612C104.176 26.5783 104.577 26.7709 105.048 28.7431C105.083 28.9177 105.136 29.005 105.397 29.005H105.572C105.659 29.005 105.747 28.9177 105.747 28.8304L105.572 26.1249C105.572 26.0376 105.485 25.9503 105.397 25.9503C99.289 26.0025 97.6308 26.0025 95.798 25.9503C95.6063 25.9503 95.6234 26.0727 95.6234 26.1249V26.3867C95.6234 26.474 95.6234 26.5612 95.798 26.5612C97.6308 26.5612 97.7181 27.5213 97.7181 31.4487V32.6706C97.7181 36.598 97.6308 37.558 95.798 37.558C95.6234 37.558 95.6234 37.6453 95.6234 37.7326V37.9944C95.6234 38.0466 95.6234 38.169 95.798 38.169C97.6308 38.1168 99.289 38.1168 106.707 38.169C106.881 38.169 106.881 38.0817 106.881 37.9944V34.8525C106.881 34.6779 106.794 34.6779 106.707 34.6779H106.707Z" fill="white"/>
<path d="M118.994 28.9177C118.994 31.1347 117.074 32.0596 115.242 32.0596C117.441 32.0596 118.488 34.2937 118.994 36.4234C119.134 37.0173 119.797 37.558 120.653 37.558C120.827 37.558 120.827 37.6282 120.827 37.7326V37.9944C120.827 38.0817 120.827 38.169 120.653 38.169H117.598C117.441 38.169 117.249 38.0817 117.249 37.8199C117.249 32.5311 114.247 32.2342 113.147 32.2342H112.449C112.449 37.3835 112.274 37.558 114.456 37.558C114.631 37.558 114.631 37.6453 114.631 37.7326V37.9944C114.631 38.0817 114.631 38.169 114.456 38.169C112.362 38.1168 111.14 38.1168 108.958 38.169C108.783 38.169 108.783 38.0817 108.783 37.9944V37.7326C108.783 37.6453 108.783 37.558 108.958 37.558C111.14 37.558 110.965 37.3835 110.965 32.3215V31.6233C110.965 26.5612 111.14 26.5612 108.958 26.5612C108.783 26.5612 108.783 26.4911 108.783 26.3867V26.1249C108.783 26.0376 108.783 25.9503 108.958 25.9503H115.242C117.231 25.9503 118.994 26.9104 118.994 28.9177ZM113.147 31.6233C116.463 31.6233 116.987 30.4887 116.987 28.9177C116.987 27.6086 116.725 26.5612 113.147 26.5612H112.449V31.6233H113.147Z" fill="white"/>
<path d="M129.509 26.9105L130.033 26.3868C130.19 26.2122 130.207 26.1772 130.469 26.2995C130.627 26.3868 130.731 26.4741 130.731 26.5614C130.556 27.3639 130.259 27.9929 130.644 29.0924C130.714 29.3542 130.714 29.4415 130.469 29.5287C130.19 29.616 130.155 29.5989 130.033 29.2669C129.23 27.4341 128.27 26.4219 126.804 26.4741C124.43 26.5614 124.343 28.2196 124.36 28.5687C124.343 31.8852 131.586 30.2269 131.603 34.7644C131.586 37.2081 130.206 38.3427 127.675 38.3427C125.144 38.3427 124.883 37.3827 124.272 37.3827C124.08 37.3827 123.731 37.6616 123.573 37.8191C123.486 37.9063 123.312 37.9063 123.137 37.8191C122.805 37.6445 122.858 37.5743 122.962 37.1209C123.12 36.1608 123.102 35.7244 123.05 34.7644C123.015 34.5026 122.945 34.4153 123.224 34.328C123.573 34.2057 123.538 34.4153 123.661 34.6771C124.516 36.9463 125.564 37.7318 127.326 37.7318C129.927 37.7318 130.188 35.899 130.206 35.1135C130.189 32.1461 123.033 33.5425 123.051 29.1787C123.034 27.2587 124.604 25.8622 126.629 25.8622C128.27 25.8622 128.915 26.4903 129.509 26.9096V26.9105Z" fill="white"/>
<path d="M139.561 26.1249V26.3867C139.561 26.474 139.561 26.5612 139.387 26.5612C137.379 26.5612 137.205 26.6485 137.205 31.4487V32.6706C137.205 37.558 137.379 37.558 139.387 37.558C139.561 37.558 139.561 37.6453 139.561 37.7326V37.9944C139.561 38.0817 139.561 38.169 139.387 38.169C136.943 38.1168 135.983 38.1168 133.539 38.169C133.365 38.169 133.365 38.0817 133.365 37.9944V37.7326C133.365 37.6453 133.365 37.558 133.539 37.558C135.546 37.558 135.721 37.558 135.721 32.6706V31.4487C135.721 26.6485 135.546 26.5612 133.539 26.5612C133.365 26.5612 133.365 26.474 133.365 26.3867V26.1249C133.365 26.0205 133.365 25.9503 133.539 25.9503C136.07 26.0025 136.943 26.0025 139.387 25.9503C139.561 25.9503 139.561 26.0376 139.561 26.1249Z" fill="white"/>
<path d="M154.006 26.1249V29.3541C154.006 29.5286 153.919 29.5286 153.831 29.5286H153.657C153.569 29.5286 153.482 29.5286 153.395 29.3541C152.871 28.2195 153.046 26.5612 149.729 26.5612H148.682V32.6697C148.682 37.5571 148.857 37.5571 150.864 37.5571C151.038 37.5571 151.038 37.6444 151.038 37.7317V37.9935C151.038 38.0979 151.038 38.1681 150.864 38.1681C148.595 38.133 147.286 38.133 145.017 38.1681C144.843 38.1681 144.843 38.0979 144.843 37.9935V37.7317C144.843 37.6444 144.843 37.5571 145.017 37.5571C147.025 37.5571 147.199 37.5571 147.199 32.6697V26.5612H146.152C142.835 26.5612 143.01 28.2195 142.486 29.3541C142.399 29.5286 142.312 29.5286 142.224 29.5286H142.05C141.963 29.5286 141.875 29.5286 141.875 29.3541V26.1249C141.875 26.0376 141.875 25.9503 142.05 25.9503H153.831C154.006 25.9503 154.006 26.0376 154.006 26.1249Z" fill="white"/>
<path d="M167.113 25.9503C167.2 25.9503 167.287 26.0376 167.287 26.1249V26.3867C167.287 26.474 167.287 26.5612 167.113 26.5612C166.414 26.5612 165.419 27.1722 164.843 28.394L162.312 33.7179C162.312 37.558 162.574 37.558 164.582 37.558C164.756 37.558 164.756 37.7326 164.756 37.8199V37.9944C164.756 38.0817 164.756 38.169 164.582 38.169C162.225 38.1168 160.916 38.1168 158.734 38.169C158.56 38.169 158.56 38.0988 158.56 37.9944V37.7326C158.56 37.6453 158.56 37.558 158.734 37.558C160.567 37.558 160.829 37.558 160.829 33.8924L157.949 28.394C157.285 27.1371 157.146 26.5612 155.854 26.5612C155.679 26.5612 155.679 26.474 155.679 26.3867V26.1249C155.679 26.0376 155.679 25.9503 155.854 25.9503C157.163 26.0025 159.52 26.0025 160.567 25.9503C160.741 25.9503 160.741 26.0376 160.741 26.1249V26.3867C160.741 26.474 160.741 26.5612 160.567 26.5612C159.52 26.5612 158.821 26.8753 159.607 28.394L161.963 32.9324L164.145 28.394C164.756 27.12 164.843 26.5612 163.098 26.5612C162.923 26.5612 162.923 26.474 162.923 26.3867V26.1249C162.923 26.0376 162.923 25.9503 163.098 25.9503C164.843 26.0025 166.414 25.9503 167.113 25.9503Z" fill="white"/>
<path d="M35.7854 7.07256C23.8223 10.3072 18.3167 0.506165 18.3167 0.506165C18.3167 0.506165 12.8111 10.3072 0.84887 7.07256C0.84887 7.07256 0.0480897 12.2632 1.60196 19.473H35.0314C36.5853 12.2623 35.7845 7.07256 35.7845 7.07256H35.7854ZM18.4849 8.72361C18.9276 8.15136 19.5313 8.16216 20.118 8.26023C20.665 8.34751 21.204 8.40599 21.751 8.50407C22.5896 8.65523 23.5586 8.78479 24.4584 8.41319V16.1277C24.1174 16.3985 23.4498 16.4624 22.9378 16.43C22.0219 16.3571 21.1275 16.1592 20.2134 16.0647C19.6069 15.9855 19.0158 15.9441 18.4849 16.376V8.72541V8.72361ZM12.1768 8.41229C13.0774 8.78389 14.0464 8.65433 14.8841 8.50317C15.4312 8.40509 15.9701 8.34661 16.5172 8.25933C17.1038 8.16126 17.7075 8.15046 18.1502 8.72271V16.3733C17.6176 15.9414 17.0273 15.9828 16.4218 16.0629C15.5076 16.1574 14.6124 16.3553 13.6973 16.4282C13.1845 16.4606 12.5169 16.3976 12.1768 16.1259V8.41139V8.41229ZM10.7965 15.4736H10.0857V14.0528H10.7965V15.4736ZM10.7965 11.7531H10.0857V10.3324H10.7965V11.7531ZM25.5201 17.1048C25.1665 17.1561 23.9887 17.3117 22.8685 17.3117C21.1266 17.2974 19.481 17.0814 19.1417 17.0337V17.5673C19.0419 17.6087 18.7387 17.7229 18.314 17.7211C17.8839 17.7193 17.5987 17.6087 17.4952 17.5673V17.0337C17.2766 17.0634 15.549 17.2974 13.7684 17.3117C12.6491 17.3117 11.4705 17.1552 11.1169 17.1048V9.35703C11.3085 9.31564 11.6621 9.23827 11.843 9.19868C11.8448 9.20228 11.8394 16.2374 11.8448 16.2392C11.8502 16.2491 11.9869 16.4813 12.3036 16.5847C13.1134 16.8547 13.7171 16.7737 14.3596 16.6882C14.9282 16.6126 15.4483 16.5407 15.9485 16.4687C16.5163 16.3904 17.1146 16.2392 17.6635 16.4543C17.8164 16.5164 18.0261 16.6351 18.1556 16.8475L18.1628 16.8592L18.215 16.8286H18.421L18.4732 16.8592L18.4804 16.8475C19.0095 16.1133 19.9335 16.3679 20.6875 16.4687C21.1896 16.5407 21.7087 16.6126 22.2792 16.6891C22.9189 16.7746 23.5226 16.8556 24.3324 16.5856C24.6491 16.4822 24.7859 16.2491 24.7913 16.2401C24.7958 16.2401 24.7931 9.20048 24.7931 9.19958C24.9748 9.24007 25.3275 9.31834 25.5192 9.35793V17.1048H25.5201ZM26.5503 15.4736H25.8395V14.0528H26.5503V15.4736ZM26.5503 11.7531H25.8395V10.3324H26.5503V11.7531Z" fill="white"/>
<path d="M18.3165 20.0956L6.28503 31.7474C7.36744 33.6504 8.65138 35.5731 10.1738 37.4797L18.3165 29.4512L26.4593 37.4797C27.9808 35.5731 29.2656 33.6504 30.348 31.7474L18.3165 20.0965V20.0956Z" fill="#F58025"/>
<path d="M18.3165 20.0956L6.28503 31.7474C7.36744 33.6504 8.65138 35.5731 10.1738 37.4797L18.3165 29.4512L26.4593 37.4797C27.9808 35.5731 29.2656 33.6504 30.348 31.7474L18.3165 20.0965V20.0956Z" fill="white"/>
<path d="M18.3169 2.08233C18.8639 2.81023 19.7061 3.79816 20.8587 4.78699C24.5405 7.94692 28.4535 8.61094 31.088 8.61094C32.3593 8.61094 33.6757 8.46338 35.0127 8.17096C35.1558 9.96147 35.2871 14.094 34.1678 19.2865C33.2564 23.5135 31.7133 27.5588 29.58 31.3099C28.4733 33.2561 27.1911 35.1465 25.7686 36.928C23.6344 39.602 21.1295 42.1015 18.3169 44.3653C15.5033 42.1015 12.9984 39.602 10.8651 36.928C9.44261 35.1455 8.16046 33.2552 7.05467 31.3099C4.92135 27.5588 3.37827 23.5135 2.46682 19.2865C1.68494 15.6596 1.52388 12.5699 1.52748 10.6165C1.52928 9.58537 1.57517 8.754 1.62196 8.17006C2.95989 8.46248 4.27623 8.61004 5.54758 8.61004C10.3199 8.61004 13.7443 6.53071 15.776 4.78609C16.9277 3.79726 17.7707 2.80933 18.3178 2.08143M18.3178 0.505066C18.3178 0.505066 14.2608 7.72648 5.54758 7.72648C4.10977 7.72648 2.5451 7.53034 0.849968 7.07146C0.849968 7.07146 0.0491883 12.2621 1.60306 19.4719C2.40114 23.1734 3.82005 27.4077 6.28628 31.7454C7.36868 33.6484 8.65263 35.5711 10.175 37.4777C12.3623 40.2184 15.0409 42.9257 18.3178 45.4918C21.5956 42.9257 24.2732 40.2184 26.4605 37.4777C27.982 35.5711 29.2669 33.6484 30.3493 31.7454C32.8155 27.4077 34.2344 23.1734 35.0325 19.4719C36.5864 12.2612 35.7856 7.07146 35.7856 7.07146C34.0913 7.52944 32.5258 7.72648 31.088 7.72648C22.373 7.72738 18.3169 0.505966 18.3169 0.505966L18.3178 0.505066Z" fill="white"/>
<path d="M14.2804 9.83121C14.1616 9.84021 14.0842 9.9023 14.0482 9.98327L13.5605 11.0693C13.5605 11.0693 13.5363 11.0855 13.5219 11.0855C13.5075 11.0855 13.4895 11.0693 13.4778 11.0351C13.4661 10.9964 13.4067 10.8443 13.2789 10.5483L13.1215 10.1929C13.0648 10.0625 13.0207 9.97607 13.0054 9.94908C12.9487 9.85191 12.8776 9.84381 12.8003 9.83031C12.7913 9.81862 12.7913 9.80782 12.7913 9.79792C12.7913 9.78803 12.7913 9.77993 12.7967 9.76643H12.8767C12.9685 9.76643 13.0459 9.77093 13.1143 9.77093C13.1943 9.77093 13.3284 9.76373 13.4175 9.76373H13.4715C13.4805 9.76643 13.4832 9.78443 13.4832 9.79163C13.4832 9.79792 13.4832 9.81862 13.4769 9.82762C13.4175 9.83301 13.2843 9.83031 13.2843 9.91399C13.2843 9.93199 13.287 9.96438 13.296 9.98687L13.6172 10.7481L13.8854 10.1164C13.9177 10.0454 13.9204 9.98327 13.9204 9.94998C13.9204 9.8789 13.8701 9.84741 13.736 9.83121C13.7333 9.82222 13.727 9.81052 13.727 9.80152C13.727 9.78983 13.7324 9.77183 13.736 9.76463H13.7747C13.8341 9.76463 13.8935 9.77183 14.0266 9.77183C14.0509 9.77183 14.1427 9.76733 14.1868 9.76733H14.2795C14.2848 9.77723 14.2911 9.78533 14.2911 9.79612C14.2911 9.80512 14.2848 9.82402 14.2795 9.83121" fill="white"/>
<path d="M15.6381 11.0486C15.2485 11.0486 15.038 11.0387 14.9849 11.0387C14.9435 11.0387 14.8481 11.036 14.8004 11.036C14.7465 11.036 14.6214 11.045 14.4855 11.045L14.4082 11.0423C14.4019 11.0324 14.4019 11.0243 14.4019 11.0144C14.4019 11.0036 14.4019 10.9883 14.4046 10.9775C14.5089 10.9694 14.5836 10.9515 14.6007 10.9362C14.6214 10.9101 14.6367 10.8561 14.6421 10.74C14.6421 10.6806 14.6448 10.6149 14.6448 10.5484C14.6448 10.4503 14.6421 10.3315 14.6421 10.1876V9.98692C14.6394 9.84566 14.571 9.84566 14.4252 9.82946C14.4225 9.81596 14.419 9.80427 14.419 9.79527C14.419 9.78807 14.4226 9.76738 14.4306 9.76288H14.5017C14.5494 9.76288 14.6772 9.76558 14.921 9.76558C15.1442 9.76558 15.361 9.77008 15.4087 9.77008C15.4384 9.77008 15.5247 9.77188 15.5418 9.77188C15.5715 9.77188 15.5832 9.77458 15.5832 9.80157L15.6012 10.0931C15.5832 10.1021 15.5805 10.1048 15.5661 10.1048C15.5544 10.1048 15.5454 10.1048 15.5364 10.1021C15.4501 9.95633 15.4087 9.92843 15.3439 9.87895C15.3196 9.86095 15.2845 9.85105 15.2305 9.84656C15.2125 9.84656 15.1675 9.84386 15.0578 9.84386C14.9687 9.84386 14.9246 9.84656 14.912 9.84746C14.8967 9.84746 14.9003 9.84656 14.894 9.89694C14.8913 9.92843 14.8886 9.98692 14.8886 10.1552V10.3216H14.9327C14.9894 10.3216 15.0461 10.3153 15.0785 10.3072C15.1289 10.2937 15.1819 10.2568 15.2089 10.2146C15.2206 10.2002 15.2332 10.13 15.2395 10.1075C15.2485 10.1021 15.2629 10.0985 15.2809 10.0985C15.2926 10.0985 15.3052 10.1012 15.3142 10.1084C15.3106 10.1606 15.3025 10.2586 15.3025 10.3828C15.3025 10.4458 15.3079 10.5817 15.3079 10.6383C15.2962 10.6473 15.2899 10.6482 15.2719 10.6482C15.2629 10.6482 15.2458 10.6473 15.2368 10.6437C15.2251 10.534 15.2071 10.4602 15.1154 10.4215C15.065 10.4008 15.0227 10.3945 14.9723 10.3945C14.9453 10.3945 14.9129 10.3972 14.8859 10.4008V10.7364C14.8859 10.8138 14.8913 10.8606 14.9039 10.8876C14.9129 10.9101 14.9426 10.9542 14.9813 10.9587C14.9993 10.9613 15.0317 10.9676 15.101 10.9676H15.2854C15.3331 10.9676 15.4006 10.9613 15.4249 10.947C15.469 10.9164 15.5886 10.7886 15.63 10.6716C15.648 10.6644 15.657 10.6644 15.6687 10.6644C15.6804 10.6644 15.693 10.6671 15.7074 10.6734V11.0135C15.7074 11.0441 15.6867 11.0486 15.639 11.0486" fill="white"/>
<path d="M17.184 10.1687C17.175 10.1687 17.1633 10.166 17.1489 10.1642C17.1183 10.085 17.0833 10.013 17.0536 9.97432C16.9996 9.90864 16.9501 9.86545 16.8151 9.84926C16.7854 9.84836 16.7144 9.84836 16.691 9.84836L16.6883 10.4143C16.6883 10.5043 16.6883 10.6095 16.691 10.8039C16.6937 10.9533 16.7593 10.9533 16.9132 10.973C16.9222 10.9892 16.9249 11 16.9249 11.0099C16.9249 11.0207 16.9222 11.0306 16.9159 11.0414H16.8601C16.7701 11.0414 16.592 11.036 16.5362 11.036C16.4975 11.036 16.3014 11.045 16.2087 11.045C16.1997 11.0315 16.197 11.0315 16.197 11.0108C16.197 11.0009 16.1997 10.9901 16.206 10.9775C16.4111 10.9623 16.4318 10.9236 16.4381 10.8579C16.4444 10.8165 16.4444 10.6473 16.4444 10.4746V10.0049C16.4444 9.94643 16.4408 9.88705 16.4327 9.84926C16.394 9.84926 16.269 9.84926 16.2339 9.86275C16.1304 9.90144 16.0557 9.98962 15.9757 10.1453C15.9667 10.1498 15.9523 10.1498 15.9433 10.1498C15.9316 10.1498 15.919 10.1453 15.9136 10.1363V9.80607C15.9136 9.77638 15.9163 9.76918 15.9523 9.76918C15.9811 9.76918 16.0296 9.77098 16.0917 9.77098C16.1358 9.77098 16.3239 9.77368 16.5578 9.77368C16.8673 9.77368 17.0958 9.76648 17.1552 9.76648C17.1849 9.76648 17.2056 9.76648 17.2173 9.77638C17.22 9.78268 17.2173 9.80607 17.2173 9.82406V10.1534C17.2119 10.1651 17.1966 10.1696 17.1849 10.1696" fill="white"/>
<path d="M14.2173 12.1805C14.2056 12.1805 14.1966 12.1778 14.1786 12.176C14.1517 12.0968 14.1166 12.0248 14.0842 11.9861C14.0338 11.9205 13.9798 11.8773 13.8457 11.8611C13.816 11.8602 13.745 11.8602 13.7216 11.8602L13.718 12.4261C13.718 12.5161 13.718 12.6205 13.7216 12.8157C13.7243 12.9651 13.7926 12.9651 13.9474 12.9849C13.9564 13.0011 13.9564 13.0119 13.9564 13.0218C13.9564 13.0317 13.9564 13.0425 13.9501 13.0533H13.8934C13.8016 13.0533 13.6235 13.0479 13.5695 13.0479C13.5308 13.0479 13.3347 13.0569 13.2393 13.0569C13.2339 13.0434 13.2303 13.0434 13.2303 13.0227C13.2303 13.0128 13.2339 13.002 13.2366 12.9885C13.4417 12.9741 13.4624 12.9354 13.4714 12.8697C13.4741 12.8283 13.4741 12.6592 13.4741 12.4864V12.0167C13.4741 11.9583 13.4741 11.8989 13.4651 11.8611C13.4264 11.8611 13.2987 11.8611 13.2627 11.8746C13.1592 11.9133 13.0872 12.0005 13.0072 12.1571C12.9955 12.1607 12.9802 12.1607 12.9721 12.1607C12.9604 12.1607 12.9514 12.1571 12.9424 12.1472V11.817C12.9424 11.7873 12.9478 11.7801 12.9811 11.7801C13.0144 11.7801 13.0585 11.7819 13.1205 11.7819C13.1682 11.7819 13.3554 11.7846 13.5902 11.7846C13.8961 11.7846 14.1283 11.7774 14.184 11.7774C14.2164 11.7774 14.238 11.7774 14.2461 11.7873C14.2515 11.7927 14.2488 11.817 14.2488 11.835V12.1652C14.2398 12.1769 14.2281 12.1814 14.2164 12.1814" fill="white"/>
<path d="M15.6858 13.0604C15.2999 13.0604 15.0857 13.0505 15.0353 13.0505C14.9939 13.0505 14.8986 13.0478 14.8482 13.0478C14.7978 13.0478 14.67 13.0568 14.536 13.0568L14.4586 13.0541C14.4523 13.0442 14.4496 13.0361 14.4496 13.0262C14.4496 13.0154 14.4496 13.0001 14.4559 12.9884C14.5594 12.9812 14.634 12.9632 14.6484 12.947C14.6727 12.9209 14.6835 12.8669 14.6898 12.7509C14.6925 12.6915 14.6952 12.6258 14.6952 12.5592C14.6952 12.4612 14.6925 12.3424 14.6925 12.1984C14.6925 12.0986 14.6898 12.0392 14.6898 11.9978C14.6871 11.8565 14.6214 11.8565 14.4757 11.8403C14.4703 11.8268 14.4667 11.8151 14.4667 11.8061C14.4667 11.7989 14.473 11.7782 14.4811 11.7737H14.5495C14.5998 11.7737 14.7249 11.7764 14.9687 11.7764C15.1946 11.7764 15.4087 11.7809 15.4591 11.7809C15.4861 11.7809 15.5752 11.7827 15.5896 11.7827C15.6229 11.7827 15.6337 11.7854 15.6337 11.8124L15.649 12.104C15.6337 12.1129 15.6283 12.1156 15.613 12.1156C15.604 12.1156 15.595 12.1156 15.5833 12.1129C15.4996 11.9672 15.4582 11.9393 15.3907 11.8898C15.3664 11.8718 15.334 11.8619 15.281 11.8574C15.263 11.8574 15.2189 11.8547 15.1055 11.8547C15.0191 11.8547 14.9714 11.8574 14.9624 11.8592C14.9444 11.8592 14.948 11.8574 14.9417 11.9078C14.9417 11.9393 14.9391 11.9978 14.9391 12.166V12.3325H14.9804C15.0398 12.3325 15.0965 12.3262 15.1262 12.3181C15.1802 12.3046 15.2297 12.2677 15.2594 12.2254C15.2684 12.211 15.2837 12.1408 15.2864 12.1183C15.2981 12.1129 15.3133 12.1094 15.3277 12.1094C15.3421 12.1094 15.3547 12.1129 15.3637 12.1201C15.3601 12.1723 15.3493 12.2704 15.3493 12.3946C15.3493 12.4567 15.3583 12.5934 15.3583 12.6501C15.3439 12.6591 15.3403 12.66 15.3232 12.66C15.3115 12.66 15.2963 12.6591 15.2846 12.6555C15.2729 12.5457 15.2576 12.472 15.1631 12.4333C15.1127 12.4126 15.0704 12.4063 15.0236 12.4063C14.9966 12.4063 14.9642 12.409 14.9373 12.4117V12.7482C14.9373 12.8256 14.9426 12.8723 14.9516 12.8993C14.9633 12.9218 14.993 12.9659 15.029 12.9704C15.047 12.9731 15.083 12.9794 15.1487 12.9794H15.3358C15.3835 12.9794 15.4483 12.9731 15.4726 12.9587C15.5203 12.929 15.6391 12.8013 15.6813 12.6843C15.6957 12.6771 15.7074 12.6771 15.72 12.6771C15.729 12.6771 15.7443 12.6798 15.756 12.6861V13.0271C15.756 13.0577 15.7353 13.0622 15.6876 13.0622" fill="white"/>
<path d="M16.5891 13.0884C16.482 13.0884 16.3632 13.047 16.2922 13.011C16.2796 13.0047 16.2562 13.0002 16.2445 13.0002C16.2301 13.0002 16.1914 13.02 16.1491 13.0497C16.1194 13.0497 16.0843 13.0353 16.0753 13.011C16.0753 12.984 16.0996 12.9039 16.0996 12.8535C16.0996 12.8229 16.0906 12.6799 16.0879 12.6448C16.0996 12.6268 16.123 12.6178 16.1446 12.6178C16.1536 12.6178 16.159 12.6178 16.1653 12.6196C16.1923 12.6718 16.2454 12.8112 16.285 12.8679C16.365 12.9615 16.4838 13.0029 16.5702 13.0029C16.6647 13.0029 16.7366 12.9831 16.778 12.9399C16.8374 12.8832 16.8491 12.8463 16.8491 12.7842C16.8491 12.7384 16.8401 12.6997 16.814 12.6682C16.7807 12.6268 16.7537 12.6088 16.68 12.5728C16.6233 12.5458 16.4244 12.4972 16.3524 12.4585C16.2634 12.4171 16.2193 12.3811 16.1743 12.3326C16.1203 12.2642 16.1005 12.1715 16.1005 12.0995C16.1005 11.8926 16.2634 11.7396 16.4955 11.7396C16.5819 11.7396 16.7006 11.7468 16.8014 11.8269C16.8221 11.8035 16.8491 11.7783 16.8761 11.754C16.9148 11.754 16.9409 11.7747 16.9445 11.7882C16.9409 11.8188 16.9238 11.8998 16.9238 11.9637C16.9238 11.9979 16.9445 12.1328 16.9445 12.1535C16.9301 12.1598 16.9148 12.1715 16.8941 12.1715C16.8887 12.1715 16.8797 12.1688 16.8707 12.1661C16.8347 12.104 16.8014 11.9997 16.7636 11.9439C16.7042 11.8638 16.6206 11.8341 16.5081 11.8341C16.3803 11.8341 16.276 11.9142 16.276 12.0239C16.276 12.1337 16.3623 12.1814 16.4334 12.2138C16.4874 12.2345 16.5522 12.2597 16.626 12.2822C16.7213 12.3146 16.7924 12.3398 16.8311 12.3614C16.9796 12.4369 17.0417 12.5467 17.0417 12.7006C17.0417 12.9363 16.8275 13.0884 16.59 13.0884" fill="white"/>
<path d="M14.7348 15.0751C14.3452 15.0751 14.1347 15.0652 14.0807 15.0652C14.0393 15.0652 13.9439 15.0625 13.8971 15.0625C13.8431 15.0625 13.719 15.0715 13.5822 15.0715L13.5048 15.0688C13.4985 15.0589 13.4985 15.0508 13.4985 15.0409C13.4985 15.0301 13.4985 15.0148 13.5012 15.004C13.6047 14.9968 13.6803 14.9779 13.6974 14.9626C13.7181 14.9365 13.7325 14.8825 13.7388 14.7664C13.7388 14.7071 13.7415 14.6414 13.7415 14.5748C13.7415 14.4767 13.7388 14.358 13.7388 14.214V14.0133C13.7361 13.8721 13.6677 13.8721 13.5219 13.8559C13.5192 13.8424 13.5156 13.8307 13.5156 13.8217C13.5156 13.8145 13.5192 13.7938 13.5273 13.7893H13.5984C13.6461 13.7893 13.7739 13.792 14.0177 13.792C14.2408 13.792 14.4577 13.7965 14.5054 13.7965C14.5351 13.7965 14.6214 13.7983 14.6385 13.7983C14.6691 13.7983 14.6799 13.801 14.6799 13.828L14.6979 14.1195C14.6799 14.1285 14.6772 14.1312 14.6628 14.1312C14.6511 14.1312 14.6421 14.1312 14.6331 14.1285C14.5467 13.9828 14.5054 13.9549 14.4406 13.9054C14.4163 13.8874 14.3803 13.8775 14.3272 13.873C14.3092 13.873 14.2642 13.8703 14.1545 13.8703C14.0654 13.8703 14.0204 13.873 14.0087 13.8748C13.9943 13.8748 13.997 13.873 13.9907 13.9234C13.988 13.9549 13.9853 14.0133 13.9853 14.1825V14.349H14.0294C14.0861 14.349 14.1428 14.3427 14.1751 14.3346C14.2255 14.3211 14.2786 14.2842 14.3056 14.2428C14.3173 14.2275 14.3299 14.1573 14.3353 14.1357C14.3443 14.1303 14.3596 14.1267 14.3767 14.1267C14.3884 14.1267 14.401 14.1303 14.4091 14.1375C14.4064 14.1897 14.3974 14.2878 14.3974 14.4119C14.3974 14.4749 14.4028 14.6108 14.4028 14.6675C14.3911 14.6765 14.3848 14.6774 14.3677 14.6774C14.3587 14.6774 14.3407 14.6765 14.3317 14.6729C14.32 14.5631 14.302 14.4893 14.2102 14.4506C14.1599 14.4299 14.1176 14.4236 14.0672 14.4236C14.0402 14.4236 14.0078 14.4263 13.9808 14.4299V14.7655C13.9808 14.8429 13.9862 14.8897 13.9988 14.9167C14.0078 14.9392 14.0375 14.9833 14.0762 14.9878C14.0942 14.9905 14.1266 14.9968 14.1958 14.9968H14.3794C14.4271 14.9968 14.4955 14.9905 14.5189 14.9761C14.5629 14.9464 14.6817 14.8186 14.724 14.7017C14.742 14.6945 14.7501 14.6945 14.7627 14.6945C14.7753 14.6945 14.787 14.6972 14.8014 14.7035V15.0445C14.8014 15.0751 14.7807 15.0796 14.733 15.0796" fill="white"/>
<path d="M16.6072 13.8541C16.4767 13.8586 16.3634 13.9296 16.3634 14.1375L16.3607 14.7988C16.3607 14.824 16.3724 15.0111 16.3724 15.0822C16.3517 15.0957 16.331 15.1029 16.3184 15.1029C16.3121 15.1029 16.3004 15.0957 16.286 15.0822L15.3799 14.1069L15.3889 14.3057L15.3925 14.6656C15.3925 14.6935 15.3979 14.761 15.4042 14.8114C15.4105 14.8915 15.4348 14.9185 15.4699 14.9482C15.514 14.9868 15.5887 14.9985 15.6427 15.0048C15.6481 15.0156 15.6517 15.0255 15.6517 15.0354C15.6517 15.039 15.6481 15.0561 15.64 15.0678H15.5419C15.4582 15.0678 15.3934 15.0651 15.307 15.0651C15.2504 15.0651 15.1703 15.0705 15.1136 15.0705H15.0722C15.0695 15.0615 15.0695 15.0462 15.0695 15.0408C15.0695 15.0354 15.0695 15.0228 15.0758 15.0084C15.1406 15.0021 15.2423 14.9724 15.281 14.9185C15.2954 14.8861 15.3017 14.8267 15.3017 14.7646V14.3039C15.3017 14.2302 15.299 14.1924 15.2963 14.1195C15.2936 14.0601 15.2819 14.016 15.2522 13.98C15.2495 13.9728 15.2189 13.9413 15.1892 13.9134C15.1604 13.8882 15.0884 13.8676 15.0434 13.8496C15.038 13.8379 15.0344 13.8226 15.0344 13.8199C15.0344 13.8127 15.0371 13.7956 15.0434 13.7875H15.0767C15.1037 13.7875 15.2432 13.7947 15.3502 13.7947H15.4123C15.424 13.7992 15.4447 13.8127 15.451 13.8199L16.1222 14.5541C16.1726 14.6107 16.2383 14.6845 16.2743 14.7322V14.2041C16.2743 14.133 16.2707 14.0817 16.268 14.0565C16.2626 14.0016 16.25 13.9557 16.2302 13.9179C16.2095 13.8855 16.0844 13.8676 16.0188 13.8541C16.0134 13.8406 16.0134 13.8253 16.0134 13.8154C16.0134 13.8082 16.0134 13.7992 16.0161 13.7875H16.0547C16.1168 13.7875 16.2176 13.7965 16.2806 13.7965C16.4353 13.7965 16.483 13.7929 16.5595 13.7929H16.6099C16.6153 13.8028 16.6153 13.8163 16.6153 13.8235C16.6153 13.8298 16.6153 13.8442 16.6099 13.855" fill="white"/>
<path d="M20.8414 9.82671C20.7137 9.83121 20.5976 9.90229 20.5976 10.1101V10.7715C20.5976 10.7966 20.6066 10.9838 20.6066 11.0549C20.5886 11.0684 20.5652 11.0756 20.5562 11.0756C20.5472 11.0756 20.5382 11.0684 20.5211 11.0549L19.6151 10.0795L19.6268 10.2784L19.6295 10.6383C19.6295 10.6662 19.6349 10.7337 19.6385 10.7841C19.6475 10.8641 19.6718 10.8911 19.7041 10.9208C19.7518 10.9595 19.8256 10.9712 19.8769 10.9775C19.8823 10.9883 19.8859 10.9982 19.8859 11.0081C19.8859 11.0117 19.8823 11.0288 19.8769 11.0405H19.7761C19.696 11.0405 19.6304 11.0378 19.5413 11.0378C19.4846 11.0378 19.4072 11.0432 19.3505 11.0432H19.3092C19.3056 11.0342 19.3029 11.0189 19.3029 11.0135C19.3029 11.0081 19.3029 10.9955 19.3119 10.9811C19.3739 10.9748 19.4747 10.9451 19.5143 10.8911C19.5323 10.8587 19.535 10.7993 19.535 10.7373V10.2766C19.535 10.2028 19.535 10.165 19.5323 10.0921C19.5296 10.0328 19.5143 9.98867 19.4882 9.95268C19.4828 9.94548 19.4558 9.91399 19.4225 9.8861C19.3964 9.8609 19.3217 9.84021 19.2768 9.82222C19.2741 9.81052 19.2714 9.79522 19.2714 9.79252C19.2714 9.78532 19.2741 9.76823 19.2768 9.76013H19.3128C19.337 9.76013 19.4756 9.76733 19.5836 9.76733H19.6457C19.6574 9.77183 19.6781 9.78532 19.687 9.79252L20.3583 10.5267C20.4087 10.5834 20.4743 10.6572 20.5103 10.7049V10.1767C20.5103 10.1056 20.504 10.0544 20.5013 10.0292C20.4986 9.97427 20.4833 9.92839 20.4635 9.8906C20.4428 9.85821 20.3178 9.84021 20.2548 9.82671C20.2494 9.81322 20.2458 9.79792 20.2458 9.78802C20.2458 9.78083 20.2458 9.77183 20.2512 9.76013H20.2899C20.352 9.76013 20.4527 9.76913 20.5157 9.76913C20.6678 9.76913 20.7182 9.76553 20.7955 9.76553H20.8432C20.8486 9.77543 20.8522 9.78892 20.8522 9.79612C20.8522 9.80242 20.8486 9.81682 20.8432 9.82761" fill="white"/>
<path d="M21.9679 9.94903C21.9049 9.86355 21.8284 9.81407 21.7124 9.81407C21.6053 9.81407 21.5369 9.86176 21.4739 9.94903C21.3966 10.0462 21.3552 10.2028 21.3552 10.4016C21.3552 10.6005 21.3966 10.7525 21.4685 10.8524C21.5342 10.946 21.608 10.9936 21.7214 10.9936C21.8581 10.9936 21.9382 10.9298 22.0003 10.8182C22.057 10.7201 22.084 10.5834 22.084 10.407C22.084 10.1947 22.0426 10.0462 21.9679 9.94993M22.1757 10.8875C22.0507 11.0107 21.8779 11.08 21.7187 11.08C21.5594 11.08 21.3912 11.0152 21.2697 10.8956C21.1365 10.7687 21.0771 10.596 21.0771 10.407C21.0771 10.2181 21.1365 10.0516 21.2697 9.92114C21.4128 9.78618 21.5675 9.72949 21.7214 9.72949C21.8338 9.72949 21.9382 9.75828 22.0597 9.82487C22.2585 9.95083 22.3746 10.1623 22.3746 10.3935C22.3746 10.5744 22.3035 10.7561 22.1757 10.8866" fill="white"/>
<path d="M24.0005 9.83121C23.8845 9.84021 23.8071 9.9023 23.772 9.98327L23.2843 11.0693C23.2843 11.0693 23.26 11.0855 23.2456 11.0855C23.2312 11.0855 23.2105 11.0693 23.2015 11.0351C23.1898 10.9964 23.1305 10.8443 23 10.5483L22.8452 10.1929C22.7886 10.0625 22.7445 9.97607 22.7292 9.94908C22.6698 9.85191 22.6014 9.84381 22.524 9.83031C22.5123 9.81862 22.5123 9.80782 22.5123 9.79792C22.5123 9.78803 22.5123 9.77993 22.5213 9.76643H22.6014C22.6905 9.76643 22.7679 9.77093 22.8362 9.77093C22.9163 9.77093 23.0504 9.76373 23.1422 9.76373H23.1925C23.2042 9.76643 23.2069 9.78443 23.2069 9.79163C23.2069 9.79792 23.2069 9.81862 23.2006 9.82762C23.1386 9.83301 23.0081 9.83031 23.0081 9.91399C23.0081 9.93199 23.0081 9.96438 23.0198 9.98687L23.3374 10.7481L23.6082 10.1164C23.6379 10.0454 23.6406 9.98327 23.6406 9.94998C23.6406 9.8789 23.5902 9.84741 23.4562 9.83121C23.4535 9.82222 23.4508 9.81052 23.4508 9.80152C23.4508 9.78983 23.4535 9.77183 23.4562 9.76463H23.4949C23.5542 9.76463 23.6136 9.77183 23.7504 9.77183C23.7711 9.77183 23.8665 9.76733 23.9105 9.76733H24.0023C24.0077 9.77723 24.0113 9.78533 24.0113 9.79612C24.0113 9.80512 24.0077 9.82402 23.9996 9.83121" fill="white"/>
<path d="M20.4229 12.1805C20.4112 12.1805 20.4023 12.1778 20.3843 12.176C20.3573 12.0968 20.3222 12.0248 20.2898 11.9861C20.2394 11.9205 20.1863 11.8773 20.0513 11.8611C20.0217 11.8602 19.9506 11.8602 19.9263 11.8602L19.9236 12.4261C19.9236 12.5161 19.9236 12.6205 19.9263 12.8157C19.9299 12.9651 19.9983 12.9651 20.1521 12.9849C20.1611 13.0011 20.1611 13.0119 20.1611 13.0218C20.1611 13.0317 20.1611 13.0425 20.1548 13.0533H20.099C20.0064 13.0533 19.8282 13.0479 19.7751 13.0479C19.7364 13.0479 19.5403 13.0569 19.4449 13.0569C19.4395 13.0434 19.4359 13.0434 19.4359 13.0227C19.4359 13.0128 19.4386 13.002 19.4413 12.9885C19.6465 12.9741 19.6672 12.9354 19.6761 12.8697C19.6788 12.8283 19.6788 12.6592 19.6788 12.4864V12.0167C19.6788 11.9583 19.6788 11.8989 19.6699 11.8611C19.6312 11.8611 19.5034 11.8611 19.4674 11.8746C19.3639 11.9133 19.292 12.0005 19.2119 12.1571C19.2002 12.1607 19.1849 12.1607 19.1759 12.1607C19.1642 12.1607 19.1552 12.1571 19.1471 12.1472V11.817C19.1471 11.7873 19.1525 11.7801 19.1858 11.7801C19.2191 11.7801 19.2632 11.7819 19.3252 11.7819C19.3729 11.7819 19.5601 11.7846 19.794 11.7846C20.1008 11.7846 20.3321 11.7774 20.3888 11.7774C20.4211 11.7774 20.4418 11.7774 20.4508 11.7873C20.4562 11.7927 20.4535 11.817 20.4535 11.835V12.1652C20.4445 12.1769 20.4328 12.1814 20.4211 12.1814" fill="white"/>
<path d="M21.151 12.0411H21.1483C21.1213 12.0906 21.0736 12.2012 21.0556 12.248C20.9872 12.4145 20.9638 12.4703 20.9521 12.4946H21.3354C21.3057 12.419 21.2085 12.1823 21.1519 12.0411M21.9625 13.0587H21.8618C21.7961 13.0587 21.7223 13.0497 21.6449 13.0497C21.5235 13.0497 21.3687 13.0587 21.3084 13.0587C21.303 13.0533 21.2994 13.0407 21.2994 13.0263C21.2994 13.0173 21.3021 13.0056 21.3048 12.9966C21.4299 12.9903 21.4803 12.9696 21.4803 12.9192C21.4803 12.8985 21.4803 12.8572 21.4416 12.7528C21.4029 12.6592 21.3822 12.616 21.3732 12.5926C21.3678 12.5836 21.3642 12.5791 21.3381 12.5791H20.9332C20.9071 12.6106 20.8747 12.7015 20.8388 12.8248C20.8298 12.8572 20.8298 12.8868 20.8298 12.8985C20.8298 12.9399 20.8684 12.9876 21.0115 12.9903C21.0205 13.0047 21.0205 13.0173 21.0205 13.0263C21.0205 13.0353 21.0205 13.0461 21.0169 13.056H20.9818C20.8864 13.056 20.8594 13.0506 20.7587 13.0506C20.6939 13.0506 20.5364 13.056 20.4824 13.056C20.4797 13.0461 20.4771 13.0416 20.4771 13.029C20.4771 13.02 20.4771 13.011 20.4824 12.9966C20.5598 12.9804 20.6318 12.9579 20.6669 12.903C20.6876 12.8715 20.756 12.7528 20.8298 12.5683C20.9017 12.3974 20.9872 12.1805 21.0259 12.0897C21.0799 11.9781 21.097 11.9403 21.115 11.9025C21.142 11.8458 21.1717 11.7891 21.1834 11.7693C21.1951 11.755 21.222 11.7451 21.2337 11.7451C21.2544 11.7451 21.2814 11.7586 21.2904 11.772C21.3021 11.7954 21.3174 11.8215 21.3201 11.8359C21.3948 12.0123 21.4542 12.1697 21.546 12.3902C21.5936 12.5017 21.617 12.571 21.6683 12.6871C21.7034 12.76 21.7241 12.8149 21.7601 12.8814C21.8078 12.9777 21.8843 12.9795 21.9625 12.9993C21.9652 13.0083 21.9742 13.0173 21.9742 13.029C21.9742 13.0407 21.9679 13.047 21.9625 13.0587Z" fill="white"/>
<path d="M23.9474 13.0587L23.4274 13.0533H23.2843C23.2789 13.0434 23.2753 13.0263 23.2753 13.02C23.2753 13.0038 23.2789 13.0002 23.287 12.9876C23.314 12.9849 23.3824 12.9876 23.4148 12.9759C23.4688 12.9525 23.4886 12.9003 23.4886 12.823V11.8989H23.4859L23.2123 12.4973C23.1826 12.5629 23.1476 12.634 23.117 12.706C23.0549 12.8455 23.0225 12.9426 23.0045 12.9975C22.9955 13.0209 22.9739 13.0209 22.9631 13.0209C22.9451 13.0209 22.9334 13.0155 22.9244 12.9858C22.8893 12.9084 22.865 12.8581 22.8533 12.8257L22.425 11.8836H22.4161V12.1248L22.425 12.7267C22.425 12.9102 22.5204 12.9957 22.6662 12.9957C22.6725 13.0056 22.6779 13.0218 22.6779 13.0263C22.6779 13.0335 22.6752 13.047 22.6689 13.0578C22.6599 13.0578 22.6311 13.0605 22.6041 13.0605C22.5861 13.0605 22.4907 13.0515 22.354 13.0515C22.3153 13.0515 22.2352 13.0542 22.1731 13.0542H22.0867C22.084 13.0443 22.0804 13.0335 22.0804 13.0227C22.0804 13.0182 22.084 13.0047 22.0867 12.9948C22.1218 12.9858 22.2469 12.9561 22.2739 12.9291C22.3009 12.9039 22.3243 12.8491 22.3243 12.7222V12.0627C22.3216 11.9574 22.3099 11.9169 22.2595 11.8818C22.2388 11.8656 22.1587 11.8566 22.0903 11.8476C22.0849 11.8359 22.0813 11.8224 22.0813 11.8116C22.0813 11.8026 22.0849 11.7909 22.0903 11.7774C22.1407 11.7774 22.2298 11.7819 22.3189 11.7819H22.6311C22.6428 11.7909 22.6491 11.7963 22.6581 11.8152L23.0414 12.6844L23.1098 12.5098C23.1691 12.3704 23.2555 12.1607 23.377 11.9331C23.404 11.8827 23.4373 11.8179 23.4544 11.7846L23.942 11.7766C23.9474 11.7873 23.9537 11.7963 23.9537 11.808C23.9537 11.8215 23.951 11.8287 23.9447 11.8404C23.8907 11.8494 23.799 11.8494 23.7549 11.9241C23.7405 11.9484 23.7306 11.9718 23.7306 12.0771V12.697C23.7306 12.9345 23.79 12.9588 23.817 12.9759C23.8314 12.9849 23.906 12.9939 23.9474 12.9939C23.9528 13.0056 23.9564 13.0146 23.9564 13.0263C23.9564 13.0461 23.9501 13.047 23.9474 13.0587Z" fill="white"/>
<path d="M20.3933 14.195C20.3816 14.195 20.3726 14.1923 20.3546 14.1905C20.3276 14.1113 20.2925 14.0394 20.2601 14.0007C20.2098 13.935 20.1567 13.8918 20.0217 13.8756C19.992 13.8747 19.9209 13.8747 19.8975 13.8747L19.8939 14.4407C19.8939 14.5306 19.8939 14.6359 19.8975 14.8302C19.9002 14.9796 19.9686 14.9796 20.1234 14.9994C20.1324 15.0156 20.1324 15.0264 20.1324 15.0363C20.1324 15.0471 20.1324 15.057 20.1261 15.0678H20.0703C19.9776 15.0678 19.7995 15.0624 19.7464 15.0624C19.7077 15.0624 19.5116 15.0714 19.4162 15.0714C19.4108 15.0579 19.4072 15.0579 19.4072 15.0372C19.4072 15.0273 19.4108 15.0165 19.4135 15.0039C19.6186 14.9886 19.6393 14.9499 19.6483 14.8842C19.651 14.8428 19.651 14.6737 19.651 14.5009V14.0313C19.651 13.9737 19.651 13.9134 19.642 13.8756C19.6033 13.8756 19.4756 13.8756 19.4396 13.8891C19.3361 13.9278 19.2641 14.016 19.184 14.1716C19.1723 14.1752 19.1571 14.1752 19.149 14.1752C19.1373 14.1752 19.1283 14.1716 19.1193 14.1617V13.8315C19.1193 13.8018 19.1247 13.7946 19.158 13.7946C19.1912 13.7946 19.2353 13.7964 19.2974 13.7964C19.3451 13.7964 19.5322 13.7991 19.7671 13.7991C20.073 13.7991 20.3051 13.7919 20.3609 13.7919C20.3933 13.7919 20.414 13.7919 20.423 13.8018C20.4284 13.8081 20.4257 13.8315 20.4257 13.8495V14.1797C20.4167 14.1914 20.405 14.1959 20.3933 14.1959" fill="white"/>
<path d="M21.9886 13.8576C21.8725 13.8666 21.7951 13.9287 21.76 14.0087L21.2724 15.0947C21.2724 15.0947 21.249 15.1109 21.2346 15.1109C21.2202 15.1109 21.1986 15.0947 21.1905 15.0606C21.1788 15.0219 21.1185 14.8707 20.988 14.5747L20.8333 14.2193C20.7766 14.0888 20.7325 14.0024 20.7172 13.9754C20.6578 13.8774 20.5894 13.8702 20.5121 13.8567C20.5004 13.845 20.5004 13.8342 20.5004 13.8243C20.5004 13.8144 20.5004 13.8063 20.5094 13.7928H20.5894C20.6785 13.7928 20.7559 13.7973 20.8243 13.7973C20.9044 13.7973 21.0384 13.7901 21.1302 13.7901H21.1806C21.1923 13.7928 21.195 13.8108 21.195 13.818C21.195 13.8243 21.195 13.845 21.1896 13.854C21.1266 13.8594 20.9961 13.8567 20.9961 13.9404C20.9961 13.9584 20.9961 13.9907 21.0078 14.0132L21.3254 14.7744L21.5963 14.1428C21.626 14.0717 21.6287 14.0087 21.6287 13.9763C21.6287 13.9053 21.5783 13.8738 21.4442 13.8576C21.4415 13.8486 21.4388 13.8369 21.4388 13.8279C21.4388 13.8162 21.4415 13.7982 21.4442 13.791H21.4829C21.5423 13.791 21.6017 13.7982 21.7384 13.7982C21.7591 13.7982 21.8545 13.7937 21.8986 13.7937H21.9904C21.9967 13.8036 21.9994 13.8117 21.9994 13.8225C21.9994 13.8315 21.9967 13.8504 21.9877 13.8576" fill="white"/>
<path d="M23.9733 15.0733L23.456 15.0679H23.3102C23.3039 15.0571 23.3039 15.0409 23.3039 15.0355C23.3039 15.0193 23.3039 15.0157 23.3129 15.0022C23.3426 14.9995 23.4083 15.0022 23.4434 14.9905C23.4937 14.9671 23.5144 14.9149 23.5144 14.8376V14.0872C23.5144 14.0872 23.518 13.9522 23.518 13.9135H23.5117L23.2409 14.5118C23.2085 14.5775 23.1761 14.6486 23.1437 14.7197C23.0835 14.8591 23.0484 14.9563 23.0304 15.0112C23.025 15.0355 23.0043 15.0355 22.989 15.0355C22.9737 15.0355 22.962 15.0292 22.9503 14.9995C22.9179 14.9221 22.8936 14.8717 22.8819 14.8394L22.4509 13.8973H22.4419V14.1384L22.4509 14.7404C22.4536 14.923 22.5463 15.0094 22.6948 15.0094C22.7011 15.0193 22.7038 15.0364 22.7038 15.04C22.7038 15.0472 22.7038 15.0607 22.6984 15.0715C22.6867 15.0715 22.6597 15.0742 22.63 15.0742C22.612 15.0742 22.5202 15.0652 22.3834 15.0652C22.3421 15.0652 22.2611 15.0679 22.2017 15.0679H22.1153C22.1099 15.0571 22.1063 15.0472 22.1063 15.0364C22.1063 15.0319 22.1099 15.0184 22.1153 15.0085C22.1486 14.9995 22.2755 14.9698 22.3025 14.9428C22.3268 14.9176 22.3502 14.8627 22.3502 14.7359L22.3529 14.4327L22.3502 14.0764C22.3475 13.9711 22.3385 13.9306 22.2854 13.8955C22.2647 13.8793 22.1846 13.8694 22.1189 13.8613C22.1099 13.8496 22.1072 13.8361 22.1072 13.8253C22.1072 13.8163 22.1108 13.8046 22.1189 13.792C22.1666 13.792 22.2584 13.7956 22.3448 13.7956H22.6597C22.6687 13.8046 22.6777 13.8109 22.6831 13.8289L23.0664 14.6981L23.1374 14.5235C23.1941 14.3841 23.2832 14.1744 23.4047 13.9468C23.429 13.8964 23.4649 13.8316 23.482 13.7983L23.967 13.7911C23.9724 13.801 23.9814 13.8109 23.9814 13.8217C23.9814 13.8352 23.976 13.8424 23.9697 13.855C23.9193 13.864 23.8267 13.864 23.7826 13.9378C23.7682 13.9621 23.7556 13.9855 23.7556 14.0908V14.7107C23.7556 14.9482 23.815 14.9725 23.8446 14.9896C23.8563 14.9986 23.931 15.0076 23.9724 15.0076C23.9814 15.0193 23.9841 15.0283 23.9841 15.04C23.9841 15.0598 23.9778 15.0607 23.9724 15.0724" fill="white"/>
</g>
<g clip-path="url(#clip1_149_2387)">
<path d="M199.666 21.3235C195.783 21.3235 193.149 18.5307 193.149 14.193C193.149 9.83551 195.783 7.08236 199.666 7.08236C203.548 7.08236 206.202 9.83551 206.202 14.193C206.202 18.5307 203.548 21.3235 199.666 21.3235ZM195.823 14.193C195.823 17.2235 197.289 19.0655 199.666 19.0655C202.042 19.0655 203.508 17.2235 203.508 14.193C203.508 11.1428 202.042 9.34034 199.666 9.34034C197.289 9.34034 195.823 11.1428 195.823 14.193ZM208.783 9.95435C208.783 7.7756 210.071 6.94371 211.972 6.94371H213.398V8.88478H212.586C211.655 8.88478 211.319 9.36015 211.319 10.2515V10.8259H213.339V12.7867H211.319V21.1254H208.783V12.7867H207.337V10.8259H208.783V9.95435ZM215.611 9.95435C215.611 7.7756 216.899 6.94371 218.8 6.94371H220.226V8.88478H219.414C218.483 8.88478 218.146 9.36015 218.146 10.2515V10.8259H220.167V12.7867H218.146V21.1254H215.611V12.7867H214.165V10.8259H215.611V9.95435ZM221.59 21.1254V10.8259H224.125V21.1254H221.59ZM221.411 7.95386C221.411 7.14178 222.085 6.52777 222.857 6.52777C223.61 6.52777 224.283 7.14178 224.283 7.95386C224.283 8.76594 223.61 9.37995 222.857 9.37995C222.085 9.37995 221.411 8.76594 221.411 7.95386ZM230.886 21.3235C228.311 21.3235 225.756 19.7983 225.756 15.9954C225.756 12.1925 228.311 10.6278 230.886 10.6278C232.689 10.6278 235.125 11.3606 235.501 14.6882H233.204C232.946 13.3017 232.035 12.7669 230.866 12.7669C229.104 12.7669 228.133 14.0544 228.133 15.9954C228.133 17.9365 229.104 19.1843 230.866 19.1843C232.075 19.1843 232.946 18.6099 233.204 17.2433H235.501C235.184 20.551 232.708 21.3235 230.886 21.3235ZM241.659 21.3235C238.985 21.3235 236.569 19.7983 236.569 15.9558C236.569 12.1529 238.926 10.6278 241.619 10.6278C244.273 10.6278 246.452 12.0935 246.452 15.8568C246.452 16.2133 246.432 16.4114 246.393 16.6292H238.965C239.124 18.5505 240.094 19.3824 241.718 19.3824C243.006 19.3824 243.758 18.8872 244.056 17.8969H246.314C245.759 20.2341 243.956 21.3235 241.659 21.3235ZM238.985 15.0843H244.056C243.996 13.6384 243.243 12.5689 241.58 12.5689C240.094 12.5689 239.163 13.4007 238.985 15.0843ZM257.25 21.3235C254.655 21.3235 252.14 19.6993 252.14 15.9756C252.14 12.2519 254.655 10.6278 257.25 10.6278C259.825 10.6278 262.36 12.2519 262.36 15.9756C262.36 19.6993 259.825 21.3235 257.25 21.3235ZM254.516 15.9756C254.516 18.2138 255.744 19.2041 257.25 19.2041C258.735 19.2041 259.963 18.2138 259.963 15.9756C259.963 13.7375 258.735 12.7471 257.25 12.7471C255.744 12.7471 254.516 13.7375 254.516 15.9756ZM264.548 9.95435C264.548 7.7756 265.835 6.94371 267.737 6.94371H269.163V8.88478H268.351C267.42 8.88478 267.083 9.36015 267.083 10.2515V10.8259H269.104V12.7867H267.083V21.1254H264.548V12.7867H263.102V10.8259H264.548V9.95435ZM279.523 21.264C277.582 21.264 276.315 20.4124 276.315 18.2336V12.8065H274.592V10.8259H276.315V8.19154H278.85V10.8259H280.87V12.8065H278.85V17.8375C278.85 18.7288 279.127 19.2239 280.197 19.2239C280.435 19.2239 280.613 19.2239 280.989 19.1843V21.0858C280.553 21.2046 280.058 21.264 279.523 21.264ZM289.55 15.2428C289.55 13.5592 288.818 12.7273 287.451 12.7273C286.064 12.7273 285.054 13.5592 285.054 15.2428V21.1254H282.519V7.26062H285.054V12.9452H285.133C285.332 12.0539 286.322 10.6278 288.501 10.6278C290.521 10.6278 292.086 11.8558 292.086 14.6486V21.1254H289.55V15.2428ZM298.816 21.3235C296.142 21.3235 293.726 19.7983 293.726 15.9558C293.726 12.1529 296.083 10.6278 298.777 10.6278C301.431 10.6278 303.609 12.0935 303.609 15.8568C303.609 16.2133 303.59 16.4114 303.55 16.6292H296.122C296.281 18.5505 297.251 19.3824 298.876 19.3824C300.163 19.3824 300.916 18.8872 301.213 17.8969H303.471C302.916 20.2341 301.114 21.3235 298.816 21.3235ZM296.142 15.0843H301.213C301.153 13.6384 300.401 12.5689 298.737 12.5689C297.251 12.5689 296.321 13.4007 296.142 15.0843ZM193.446 39.0459V25.1811H198.477C202.815 25.1811 205.033 27.6767 205.033 32.1135C205.033 36.5502 202.815 39.0459 198.477 39.0459H193.446ZM196.041 36.7681H198.22C201.25 36.7681 202.379 35.342 202.379 32.1135C202.379 28.885 201.25 27.4589 198.22 27.4589H196.041V36.7681ZM211.465 39.2439C208.791 39.2439 206.375 37.7188 206.375 33.8763C206.375 30.0734 208.732 28.5482 211.426 28.5482C214.08 28.5482 216.258 30.0139 216.258 33.7772C216.258 34.1338 216.239 34.3318 216.199 34.5497H208.771C208.93 36.471 209.9 37.3029 211.525 37.3029C212.812 37.3029 213.565 36.8077 213.862 35.8173H216.12C215.565 38.1545 213.763 39.2439 211.465 39.2439ZM208.791 33.0048H213.862C213.802 31.5589 213.05 30.4893 211.386 30.4893C209.9 30.4893 208.97 31.3212 208.791 33.0048ZM220.689 39.2439C218.946 39.2439 217.381 38.412 217.381 36.3521C217.381 34.213 219.064 33.599 220.946 33.3415L222.867 33.084C223.877 32.9454 224.175 32.7671 224.175 32.2323V32.0144C224.175 30.7666 223.422 30.3903 222.313 30.3903C221.184 30.3903 220.312 30.7666 220.312 31.8956V32.1135H217.935V31.6579C217.935 29.6574 219.302 28.5482 222.372 28.5482C225.403 28.5482 226.67 29.6376 226.67 31.9154V39.0459H224.234V37.2038H224.135C223.917 37.7782 222.986 39.2439 220.689 39.2439ZM219.916 36.1342C219.916 36.9265 220.451 37.4019 221.52 37.4019C223.145 37.4019 224.175 36.3125 224.175 35.4806V34.1734C224.036 34.4111 223.541 34.5299 222.966 34.6091L221.322 34.8666C220.253 35.0251 219.916 35.5202 219.916 36.1342ZM235.913 33.1632C235.913 31.4796 235.18 30.6478 233.814 30.6478C232.427 30.6478 231.417 31.4796 231.417 33.1632V39.0459H228.882V28.7463H231.417V30.8656H231.496C231.694 29.9743 232.685 28.5482 234.864 28.5482C236.884 28.5482 238.449 29.7763 238.449 32.569V39.0459H235.913V33.1632ZM245.902 27.8748C245.902 25.6961 247.189 24.8642 249.091 24.8642H250.517V26.8052H249.705C248.774 26.8052 248.437 27.2806 248.437 28.1719V28.7463H250.457V30.7072H248.437V39.0459H245.902V30.7072H244.456V28.7463H245.902V27.8748ZM256.302 39.2439C253.707 39.2439 251.192 37.6198 251.192 33.8961C251.192 30.1724 253.707 28.5482 256.302 28.5482C258.877 28.5482 261.412 30.1724 261.412 33.8961C261.412 37.6198 258.877 39.2439 256.302 39.2439ZM253.568 33.8961C253.568 36.1343 254.796 37.1246 256.302 37.1246C257.787 37.1246 259.015 36.1343 259.015 33.8961C259.015 31.6579 257.787 30.6676 256.302 30.6676C254.796 30.6676 253.568 31.6579 253.568 33.8961ZM263.041 39.0459V28.7463H265.576V31.2024H265.636C265.972 29.8159 266.943 28.6275 268.686 28.6275C268.923 28.6275 269.201 28.6473 269.478 28.7265V30.8656C269.181 30.826 268.943 30.8062 268.686 30.8062C266.982 30.8062 265.576 31.8362 265.576 34.2526V39.0459H263.041ZM275.285 39.0459V25.1811H280.732C284.297 25.1811 285.921 27.0231 285.921 29.7168C285.921 31.7173 285.01 33.2623 283.029 33.8961L286.04 39.0459H283.445L280.692 34.2328H277.879V39.0459H275.285ZM277.879 31.955H280.633C282.415 31.955 283.227 31.1033 283.227 29.7168C283.227 28.3106 282.415 27.4589 280.633 27.4589H277.879V31.955ZM292.182 39.2439C289.508 39.2439 287.091 37.7188 287.091 33.8763C287.091 30.0734 289.449 28.5482 292.142 28.5482C294.796 28.5482 296.975 30.0139 296.975 33.7772C296.975 34.1338 296.955 34.3318 296.916 34.5497H289.488C289.647 36.471 290.617 37.3029 292.241 37.3029C293.529 37.3029 294.281 36.8077 294.578 35.8173H296.836C296.282 38.1545 294.479 39.2439 292.182 39.2439ZM289.508 33.0048H294.578C294.519 31.5589 293.766 30.4893 292.103 30.4893C290.617 30.4893 289.686 31.3212 289.508 33.0048ZM302.376 39.2439C299.741 39.2439 298.018 38.1149 297.998 35.7975H300.256C300.395 36.8869 301.227 37.3227 302.415 37.3227C303.505 37.3227 304.277 36.9463 304.277 36.0748C304.277 35.441 303.861 35.1241 303.069 34.9656L301.168 34.5497C299.088 34.0743 298.276 32.985 298.276 31.5985C298.276 29.6574 299.94 28.5482 302.415 28.5482C305.03 28.5482 306.515 29.7961 306.555 31.9748H304.455C304.297 30.8458 303.544 30.4695 302.435 30.4695C301.306 30.4695 300.732 30.8458 300.732 31.5589C300.732 32.1531 301.148 32.5294 301.98 32.6879L303.94 33.1236C305.565 33.4999 306.892 34.213 306.892 36.0154C306.892 38.2932 304.792 39.2439 302.376 39.2439ZM313.014 39.2439C310.34 39.2439 307.924 37.7188 307.924 33.8763C307.924 30.0734 310.281 28.5482 312.974 28.5482C315.628 28.5482 317.807 30.0139 317.807 33.7772C317.807 34.1338 317.787 34.3318 317.748 34.5497H310.32C310.479 36.471 311.449 37.3029 313.073 37.3029C314.361 37.3029 315.113 36.8077 315.411 35.8173H317.669C317.114 38.1545 315.312 39.2439 313.014 39.2439ZM310.34 33.0048H315.411C315.351 31.5589 314.598 30.4893 312.935 30.4893C311.449 30.4893 310.518 31.3212 310.34 33.0048ZM322.237 39.2439C320.494 39.2439 318.93 38.412 318.93 36.3521C318.93 34.213 320.613 33.599 322.495 33.3415L324.416 33.084C325.426 32.9454 325.723 32.7671 325.723 32.2323V32.0144C325.723 30.7666 324.971 30.3903 323.861 30.3903C322.732 30.3903 321.861 30.7666 321.861 31.8956V32.1135H319.484V31.6579C319.484 29.6574 320.851 28.5482 323.921 28.5482C326.951 28.5482 328.219 29.6376 328.219 31.9154V39.0459H325.783V37.2038H325.684C325.466 37.7782 324.535 39.2439 322.237 39.2439ZM321.465 36.1342C321.465 36.9265 322 37.4019 323.069 37.4019C324.693 37.4019 325.723 36.3125 325.723 35.4806V34.1734C325.585 34.4111 325.089 34.5299 324.515 34.6091L322.871 34.8666C321.802 35.0251 321.465 35.5202 321.465 36.1342ZM330.431 39.0459V28.7463H332.966V31.2024H333.025C333.362 29.8159 334.333 28.6275 336.076 28.6275C336.313 28.6275 336.591 28.6473 336.868 28.7265V30.8656C336.571 30.826 336.333 30.8062 336.076 30.8062C334.372 30.8062 332.966 31.8362 332.966 34.2526V39.0459H330.431ZM342.648 39.2439C340.073 39.2439 337.518 37.7188 337.518 33.9159C337.518 30.113 340.073 28.5482 342.648 28.5482C344.45 28.5482 346.886 29.2811 347.263 32.6086H344.965C344.708 31.2222 343.797 30.6874 342.628 30.6874C340.865 30.6874 339.895 31.9748 339.895 33.9159C339.895 35.857 340.865 37.1048 342.628 37.1048C343.836 37.1048 344.708 36.5304 344.965 35.1637H347.263C346.946 38.4715 344.47 39.2439 342.648 39.2439ZM355.954 33.1632C355.954 31.4796 355.221 30.6478 353.854 30.6478C352.468 30.6478 351.458 31.4796 351.458 33.1632V39.0459H348.922V25.1811H351.458V30.8656H351.537C351.735 29.9743 352.725 28.5482 354.904 28.5482C356.924 28.5482 358.489 29.7763 358.489 32.569V39.0459H355.954V33.1632Z" fill="white"/>
</g>
<defs>
<clipPath id="clip0_149_2387">
<rect width="166.644" height="44.9876" fill="white" transform="translate(0.642822 0.506165)"/>
</clipPath>
<clipPath id="clip1_149_2387">
<rect width="166" height="33.0114" fill="white" transform="translate(192.848 6.50616)"/>
</clipPath>
</defs>
</svg>
