<svg width="15" height="16" viewBox="0 0 15 16" fill="none" xmlns="http://www.w3.org/2000/svg">
<path d="M9.02229 14.1314V10.4226C9.02229 10.2587 8.96004 10.1015 8.84922 9.98553C8.7384 9.86961 8.5881 9.80449 8.43139 9.80449H6.06775C5.91103 9.80449 5.76073 9.86961 5.64991 9.98553C5.5391 10.1015 5.47684 10.2587 5.47684 10.4226V14.1314C5.47684 14.2953 5.41459 14.4525 5.30379 14.5684C5.19299 14.6844 5.04271 14.7495 4.886 14.7495L1.34098 14.75C1.26338 14.75 1.18653 14.734 1.11483 14.703C1.04313 14.6719 0.977978 14.6264 0.923099 14.569C0.86822 14.5116 0.824688 14.4434 0.794987 14.3684C0.765287 14.2934 0.75 14.2131 0.75 14.1319V6.98795C0.75 6.90184 0.767202 6.81667 0.800504 6.73791C0.833806 6.65916 0.882472 6.58855 0.943383 6.53062L6.85207 0.910784C6.96084 0.807331 7.10256 0.750005 7.24957 0.75C7.39658 0.749995 7.53832 0.807311 7.64709 0.910756L13.5566 6.53061C13.6175 6.58855 13.6662 6.65916 13.6995 6.73792C13.7328 6.81668 13.75 6.90185 13.75 6.98798V14.1319C13.75 14.2131 13.7347 14.2934 13.705 14.3684C13.6753 14.4434 13.6318 14.5116 13.5769 14.569C13.522 14.6264 13.4569 14.6719 13.3852 14.703C13.3135 14.734 13.2366 14.75 13.159 14.75L9.61313 14.7495C9.45642 14.7495 9.30614 14.6844 9.19534 14.5684C9.08454 14.4525 9.02229 14.2953 9.02229 14.1314V14.1314Z" stroke="#717171" stroke-width="1.5" stroke-linecap="round" stroke-linejoin="round"/>
</svg>
