<svg width="20" height="20" viewBox="0 0 20 20" fill="none" xmlns="http://www.w3.org/2000/svg">
<path d="M7.50142 13.4732L4.60976 10.5816C4.45394 10.4258 4.24261 10.3382 4.02226 10.3382C3.8019 10.3382 3.59057 10.4258 3.43476 10.5816C3.27894 10.7374 3.19141 10.9487 3.19141 11.1691C3.19141 11.2782 3.2129 11.3862 3.25465 11.487C3.29641 11.5878 3.35761 11.6794 3.43476 11.7566L6.91809 15.2399C7.24309 15.5649 7.76809 15.5649 8.09309 15.2399L16.9098 6.42323C17.0656 6.26742 17.1531 6.05609 17.1531 5.83573C17.1531 5.61538 17.0656 5.40405 16.9098 5.24823C16.7539 5.09242 16.5426 5.00488 16.3223 5.00488C16.1019 5.00488 15.8906 5.09242 15.7348 5.24823L7.50142 13.4732Z" fill="white"/>
</svg>
