<svg width="21" height="20" viewBox="0 0 21 20" fill="none" xmlns="http://www.w3.org/2000/svg">
<g id="Frame">
<path id="Vector" d="M10.0283 17C9.0561 17 8.14547 16.8153 7.29645 16.4458C6.44728 16.0764 5.70839 15.5773 5.07978 14.9485C4.45103 14.3199 3.95193 13.581 3.58249 12.7319C3.21304 11.8828 3.02832 10.9722 3.02832 10C3.02832 9.02778 3.21304 8.11715 3.58249 7.26813C3.95193 6.41896 4.45103 5.68007 5.07978 5.05146C5.70839 4.42271 6.44728 3.92361 7.29645 3.55417C8.14547 3.18472 9.0561 3 10.0283 3C11.1533 3 12.1915 3.24306 13.1429 3.72917C14.0943 4.21528 14.8894 4.875 15.5283 5.70833V3.75C15.5283 3.5375 15.5998 3.35937 15.7427 3.21562C15.8856 3.07187 16.0627 3 16.2739 3C16.4852 3 16.6637 3.07187 16.8096 3.21562C16.9554 3.35937 17.0283 3.5375 17.0283 3.75V7.25C17.0283 7.4625 16.9564 7.64063 16.8127 7.78438C16.6689 7.92813 16.4908 8 16.2783 8H12.7783C12.5658 8 12.3877 7.92854 12.2439 7.78563C12.1002 7.64271 12.0283 7.46563 12.0283 7.25438C12.0283 7.04313 12.1002 6.86458 12.2439 6.71875C12.3877 6.57292 12.5658 6.5 12.7783 6.5H14.2575C13.7587 5.87778 13.1445 5.38889 12.4148 5.03333C11.6849 4.67778 10.8894 4.5 10.0283 4.5C8.51443 4.5 7.21929 5.03819 6.1429 6.11458C5.06651 7.19097 4.52832 8.48611 4.52832 10C4.52832 11.5139 5.06651 12.809 6.1429 13.8854C7.21929 14.9618 8.51443 15.5 10.0283 15.5C11.445 15.5 12.6707 15.0312 13.7054 14.0938C14.7401 13.1562 15.3339 12 15.4867 10.625C15.5144 10.4306 15.6047 10.2778 15.7575 10.1667C15.9103 10.0556 16.0843 10 16.2796 10C16.4871 10 16.6637 10.066 16.8096 10.1979C16.9554 10.3299 17.0144 10.4931 16.9867 10.6875C16.8061 12.4653 16.0596 13.9618 14.7471 15.1771C13.4346 16.3924 11.8617 17 10.0283 17ZM10.7783 9.375L12.6533 11.25C12.8061 11.4028 12.879 11.5764 12.8721 11.7708C12.8651 11.9653 12.7853 12.1389 12.6325 12.2917C12.4797 12.4444 12.3026 12.5208 12.1012 12.5208C11.8998 12.5208 11.7228 12.4444 11.57 12.2917L9.51353 10.2352C9.44006 10.1617 9.38249 10.0785 9.34082 9.98563C9.29915 9.89271 9.27832 9.79674 9.27832 9.69771V6.74333C9.27832 6.53264 9.35124 6.35611 9.49707 6.21375C9.6429 6.07125 9.81999 6 10.0283 6C10.2367 6 10.4137 6.07187 10.5596 6.21562C10.7054 6.35937 10.7783 6.5375 10.7783 6.75V9.375Z" fill="#717171"/>
</g>
</svg>
