<svg width="21" height="20" viewBox="0 0 21 20" fill="none" xmlns="http://www.w3.org/2000/svg">
<g id="Frame">
<path id="Vector" d="M10.0242 12.687C9.92415 12.687 9.8304 12.6697 9.7429 12.6349C9.6554 12.6002 9.57693 12.5481 9.50749 12.4787L6.54915 9.52035C6.39638 9.36882 6.32346 9.19208 6.3304 8.99014C6.33735 8.78805 6.41388 8.61062 6.55999 8.45785C6.71943 8.30507 6.89985 8.22868 7.10124 8.22868C7.30263 8.22868 7.47971 8.30507 7.63249 8.45785L9.27832 10.1245V3.74951C9.27832 3.53701 9.34978 3.35889 9.4927 3.21514C9.63561 3.07139 9.8127 2.99951 10.0239 2.99951C10.2352 2.99951 10.4137 3.07139 10.5596 3.21514C10.7054 3.35889 10.7783 3.53701 10.7783 3.74951V10.1245L12.445 8.45785C12.5932 8.30507 12.7691 8.23215 12.9727 8.2391C13.1764 8.24604 13.358 8.3259 13.5175 8.47868C13.6636 8.63146 13.7367 8.80854 13.7367 9.00993C13.7367 9.21132 13.6603 9.3884 13.5075 9.54118L10.5492 12.4787C10.4742 12.5481 10.3929 12.6002 10.3054 12.6349C10.2179 12.6697 10.1242 12.687 10.0242 12.687ZM5.52249 15.9995C5.10971 15.9995 4.75749 15.8526 4.46582 15.5589C4.17415 15.2651 4.02832 14.912 4.02832 14.4995V13.7495C4.02832 13.537 4.09978 13.3589 4.2427 13.2151C4.38561 13.0714 4.5627 12.9995 4.77395 12.9995C4.9852 12.9995 5.16374 13.0714 5.30957 13.2151C5.4554 13.3589 5.52832 13.537 5.52832 13.7495V14.4995H14.5283V13.7495C14.5283 13.537 14.5998 13.3589 14.7427 13.2151C14.8856 13.0714 15.0627 12.9995 15.2739 12.9995C15.4852 12.9995 15.6637 13.0714 15.8096 13.2151C15.9554 13.3589 16.0283 13.537 16.0283 13.7495V14.4995C16.0283 14.912 15.8814 15.2651 15.5875 15.5589C15.2936 15.8526 14.9403 15.9995 14.5275 15.9995H5.52249Z" fill="#717171"/>
</g>
</svg>
