<svg width="21" height="20" viewBox="0 0 21 20" fill="none" xmlns="http://www.w3.org/2000/svg">
<g id="deployed_code">
<mask id="mask0_1252_5278" style="mask-type:alpha" maskUnits="userSpaceOnUse" x="0" y="0" width="21" height="20">
<rect id="Bounding box" x="0.0283203" width="20" height="20" fill="#D9D9D9"/>
</mask>
<g mask="url(#mask0_1252_5278)">
<path id="deployed_code_2" d="M8.69499 16.5208V10.8125L3.69499 7.91667V13.625L8.69499 16.5208ZM10.3617 16.5208L15.3617 13.625V7.91667L10.3617 10.8125V16.5208ZM9.52832 9.375L14.4658 6.52083L9.52832 3.66667L4.59082 6.52083L9.52832 9.375ZM2.86165 15.0833C2.59776 14.9306 2.3929 14.7292 2.24707 14.4792C2.10124 14.2292 2.02832 13.9514 2.02832 13.6458V7.02083C2.02832 6.71528 2.10124 6.4375 2.24707 6.1875C2.3929 5.9375 2.59776 5.73611 2.86165 5.58333L8.69499 2.22917C8.95888 2.07639 9.23665 2 9.52832 2C9.81999 2 10.0978 2.07639 10.3617 2.22917L16.195 5.58333C16.4589 5.73611 16.6637 5.9375 16.8096 6.1875C16.9554 6.4375 17.0283 6.71528 17.0283 7.02083V13.6458C17.0283 13.9514 16.9554 14.2292 16.8096 14.4792C16.6637 14.7292 16.4589 14.9306 16.195 15.0833L10.3617 18.4375C10.0978 18.5903 9.81999 18.6667 9.52832 18.6667C9.23665 18.6667 8.95888 18.5903 8.69499 18.4375L2.86165 15.0833Z" fill="#717171"/>
</g>
</g>
</svg>
