<?xml version="1.0" encoding="UTF-8"?>
<svg id="Layer_1" data-name="Layer 1" xmlns="http://www.w3.org/2000/svg" viewBox="0 0 3138 2146">
  <defs>
    <style>
      .cls-1, .cls-2 {
        fill: none;
      }

      .cls-3 {
        fill: #f8ab6f;
      }

      .cls-4 {
        fill: #d0d1d0;
      }

      .cls-5 {
        fill: #bed8e2;
      }

      .cls-6 {
        fill: #fff;
      }

      .cls-6, .cls-2 {
        stroke: #0f0f19;
        stroke-linecap: round;
        stroke-linejoin: round;
        stroke-width: 7px;
      }

      .cls-7 {
        fill: #e67625;
      }
    </style>
  </defs>
  <path class="cls-5" d="M2812.8,1244.28c-9.4-386.86-308.02-687.85-606.68-849.46-163.9-88.72-352.86-151.82-537.45-124.31-96.95,14.42-182.98,67.04-267.41,117.47-90.18,53.87-182.77,92.03-278.81,130.48-136.73,54.74-274.73,107.24-406.25,175.9-105.01,54.74-211.87,120.21-286.53,220.19-128.83,172.63-136.77,456.97-40.65,649.23,52.81,105.88,147.55,172.63,248.51,215.27,187.03,78.98,390.99,103.59,590.43,102.93,180.18-.62,349.91-45.33,527.51-67.75,87.83-11.24,176.65-7.37,263.47,11.48,255.21,55.52,580.1-24.87,723.24-281.07,52.12-93.48,73.13-196.66,70.62-300.37Z"/>
  <g>
    <rect class="cls-1" x="507" y="342.37" width="2362" height="1539.25"/>
    <path class="cls-6" d="M719.04,1673.74v-974.02c0-38.64,34.69-68.02,72.8-61.67l1109.89,184.98c30.15,5.02,52.24,31.11,52.24,61.67v789.03H719.04Z"/>
    <polygon class="cls-4" points="777.29 1615.5 777.29 694.68 1895.74 881.09 1895.74 1615.5 777.29 1615.5"/>
    <path class="cls-6" d="M2672.07,1756.78H806.2c-48.14,0-87.16-39.02-87.16-87.16h2040.19c0,48.14-39.02,87.16-87.16,87.16Z"/>
    <path class="cls-2" d="M2058.73,1669.62h0c0,48.14-39.02,87.16-87.16,87.16"/>
    <path class="cls-7" d="M2048.07,571.17h-582.48c-36.29,0-71.2-29.69-77.6-65.98l-.45-2.55-1.82-10.3c-6.4-36.29-41.32-65.98-77.61-65.98h-266.78c-36.29,0-65.98,29.69-65.98,65.98v754.43c0,36.29,31.88,65.98,68.17,65.98h1002.36c36.29,0,68.17-29.69,68.17-65.98v-609.63c0-36.29-29.69-65.98-65.98-65.98Z"/>
    <path class="cls-3" d="M2086.06,1312.75h-1061.35c0-1.1,310.69-530.8,310.69-530.8,20.95-36.29,67.78-65.98,104.07-65.98h991.14c36.29,0,48.84,29.69,27.89,65.98l-268.36,464.82c-20.95,36.29-67.78,65.98-104.07,65.98Z"/>
  </g>
</svg>