<svg width="21" height="20" viewBox="0 0 21 20" fill="none" xmlns="http://www.w3.org/2000/svg">
<g id="Frame">
<path id="Vector" d="M8.02832 10C7.19499 10 6.48665 9.70833 5.90332 9.125C5.31999 8.54167 5.02832 7.83333 5.02832 7C5.02832 6.16667 5.31999 5.45833 5.90332 4.875C6.48665 4.29167 7.19499 4 8.02832 4C8.86165 4 9.56999 4.29167 10.1533 4.875C10.7367 5.45833 11.0283 6.16667 11.0283 7C11.0283 7.83333 10.7367 8.54167 10.1533 9.125C9.56999 9.70833 8.86165 10 8.02832 10ZM2.02832 14.5V14.0833C2.02832 13.7222 2.11513 13.3889 2.28874 13.0833C2.46235 12.7778 2.70193 12.5347 3.00749 12.3542C3.81304 11.8819 4.67068 11.5417 5.5804 11.3333C6.49013 11.125 7.41026 11.0208 8.34082 11.0208C8.55332 11.0208 8.73145 11.0941 8.8752 11.2406C9.01895 11.3872 9.09082 11.5642 9.09082 11.7719C9.09082 11.9795 9.01895 12.1528 8.8752 12.2917C8.73145 12.4306 8.55332 12.5 8.34082 12.5C7.53526 12.5 6.7436 12.5938 5.96582 12.7812C5.18804 12.9688 4.45193 13.2639 3.75749 13.6667C3.68804 13.7083 3.63249 13.7658 3.59082 13.8392C3.54915 13.9124 3.52832 13.9938 3.52832 14.0833V14.5H8.34082C8.55332 14.5 8.73145 14.5715 8.8752 14.7144C9.01895 14.8573 9.09082 15.0344 9.09082 15.2456C9.09082 15.4569 9.01895 15.6354 8.8752 15.7812C8.73145 15.9271 8.55332 16 8.34082 16H3.52832C3.11582 16 2.7627 15.8531 2.46895 15.5594C2.1752 15.2656 2.02832 14.9125 2.02832 14.5ZM13.2367 16.4792L13.0908 15.8427C12.8964 15.767 12.7123 15.6806 12.5387 15.5833C12.3651 15.4861 12.2019 15.375 12.0492 15.25L11.3825 15.4583C11.2297 15.5 11.0883 15.4927 10.9581 15.4365C10.8278 15.3802 10.7262 15.2903 10.6533 15.1667L10.4867 14.8958C10.4172 14.7708 10.3894 14.6354 10.4033 14.4896C10.4172 14.3438 10.4797 14.2153 10.5908 14.1042L11.0908 13.625C11.0353 13.4306 11.011 13.2292 11.0179 13.0208C11.0248 12.8125 11.0492 12.6111 11.0908 12.4167L10.6117 11.9583C10.5005 11.8472 10.4346 11.7222 10.4137 11.5833C10.3929 11.4444 10.4172 11.3056 10.4867 11.1667L10.6533 10.8958C10.7228 10.7569 10.8269 10.6597 10.9658 10.6042C11.1047 10.5486 11.2505 10.5417 11.4033 10.5833L12.0283 10.7708C12.1811 10.6319 12.3478 10.5104 12.5283 10.4062C12.7089 10.3021 12.8964 10.2222 13.0908 10.1667L13.2367 9.5C13.2707 9.34944 13.3471 9.22847 13.466 9.13708C13.5851 9.04569 13.7239 9 13.8825 9H14.1742C14.3269 9 14.4658 9.04514 14.5908 9.13542C14.7158 9.22569 14.7922 9.34722 14.82 9.5L14.9658 10.1667C15.1603 10.2361 15.3478 10.3194 15.5283 10.4167C15.7089 10.5139 15.8755 10.6319 16.0283 10.7708L16.6742 10.5833C16.8269 10.5417 16.9693 10.5521 17.1012 10.6146C17.2332 10.6771 17.3339 10.7708 17.4033 10.8958L17.57 11.1667C17.6394 11.2917 17.6637 11.4271 17.6429 11.5729C17.6221 11.7188 17.5561 11.8472 17.445 11.9583L16.9867 12.3958C17.0144 12.6042 17.0283 12.8128 17.0283 13.0219C17.0283 13.231 17.0075 13.4321 16.9658 13.625L17.445 14.0833C17.5561 14.1944 17.6221 14.3229 17.6429 14.4688C17.6637 14.6146 17.6394 14.75 17.57 14.875L17.4033 15.1458C17.328 15.2694 17.2259 15.3594 17.0969 15.4156C16.9678 15.4719 16.8269 15.4792 16.6742 15.4375L16.0075 15.25C15.8547 15.375 15.6915 15.4896 15.5179 15.5938C15.3443 15.6979 15.1603 15.7778 14.9658 15.8333L14.7992 16.5C14.7662 16.6506 14.6922 16.7715 14.5771 16.8629C14.4619 16.9543 14.3276 17 14.1742 17H13.8617C13.7082 17 13.5739 16.9512 13.4587 16.8535C13.3436 16.7559 13.2696 16.6311 13.2367 16.4792ZM14.0327 14.5C14.4464 14.5 14.7992 14.3527 15.0908 14.0581C15.3825 13.7635 15.5283 13.4094 15.5283 12.9956C15.5283 12.5819 15.381 12.2292 15.0864 11.9375C14.7919 11.6458 14.4377 11.5 14.0239 11.5C13.6102 11.5 13.2575 11.6473 12.9658 11.9419C12.6742 12.2365 12.5283 12.5906 12.5283 13.0044C12.5283 13.4181 12.6756 13.7708 12.9702 14.0625C13.2648 14.3542 13.6189 14.5 14.0327 14.5ZM8.0327 8.5C8.44645 8.5 8.79915 8.35271 9.09082 8.05812C9.38249 7.76354 9.52832 7.40937 9.52832 6.99562C9.52832 6.58187 9.38103 6.22917 9.08645 5.9375C8.79186 5.64583 8.4377 5.5 8.02395 5.5C7.6102 5.5 7.25749 5.64729 6.96582 5.94188C6.67415 6.23646 6.52832 6.59063 6.52832 7.00438C6.52832 7.41813 6.67561 7.77083 6.9702 8.0625C7.26478 8.35417 7.61895 8.5 8.0327 8.5Z" fill="#717171"/>
</g>
</svg>
