<svg width="20" height="20" viewBox="0 0 20 20" fill="none" xmlns="http://www.w3.org/2000/svg">
<path d="M10 17C9.02778 17 8.11715 16.8153 7.26813 16.4458C6.41896 16.0764 5.68007 15.5773 5.05146 14.9485C4.42271 14.3199 3.92361 13.581 3.55417 12.7319C3.18472 11.8828 3 10.9722 3 10C3 9.02778 3.18472 8.11715 3.55417 7.26813C3.92361 6.41896 4.42271 5.68007 5.05146 5.05146C5.68007 4.42271 6.41896 3.92361 7.26813 3.55417C8.11715 3.18472 9.02778 3 10 3C11.125 3 12.1632 3.24306 13.1146 3.72917C14.066 4.21528 14.8611 4.875 15.5 5.70833V3.75C15.5 3.5375 15.5715 3.35937 15.7144 3.21562C15.8573 3.07187 16.0344 3 16.2456 3C16.4569 3 16.6354 3.07187 16.7812 3.21562C16.9271 3.35937 17 3.5375 17 3.75V7.25C17 7.4625 16.9281 7.64063 16.7844 7.78438C16.6406 7.92813 16.4625 8 16.25 8H12.75C12.5375 8 12.3594 7.92854 12.2156 7.78563C12.0719 7.64271 12 7.46563 12 7.25438C12 7.04313 12.0719 6.86458 12.2156 6.71875C12.3594 6.57292 12.5375 6.5 12.75 6.5H14.2292C13.7304 5.87778 13.1162 5.38889 12.3865 5.03333C11.6566 4.67778 10.8611 4.5 10 4.5C8.48611 4.5 7.19097 5.03819 6.11458 6.11458C5.03819 7.19097 4.5 8.48611 4.5 10C4.5 11.5139 5.03819 12.809 6.11458 13.8854C7.19097 14.9618 8.48611 15.5 10 15.5C11.4167 15.5 12.6424 15.0312 13.6771 14.0938C14.7118 13.1562 15.3056 12 15.4583 10.625C15.4861 10.4306 15.5764 10.2778 15.7292 10.1667C15.8819 10.0556 16.056 10 16.2513 10C16.4588 10 16.6354 10.066 16.7812 10.1979C16.9271 10.3299 16.9861 10.4931 16.9583 10.6875C16.7778 12.4653 16.0312 13.9618 14.7188 15.1771C13.4062 16.3924 11.8333 17 10 17ZM10.75 9.375L12.625 11.25C12.7778 11.4028 12.8507 11.5764 12.8438 11.7708C12.8368 11.9653 12.7569 12.1389 12.6042 12.2917C12.4514 12.4444 12.2743 12.5208 12.0729 12.5208C11.8715 12.5208 11.6944 12.4444 11.5417 12.2917L9.48521 10.2352C9.41174 10.1617 9.35417 10.0785 9.3125 9.98563C9.27083 9.89271 9.25 9.79674 9.25 9.69771V6.74333C9.25 6.53264 9.32292 6.35611 9.46875 6.21375C9.61458 6.07125 9.79167 6 10 6C10.2083 6 10.3854 6.07187 10.5312 6.21562C10.6771 6.35937 10.75 6.5375 10.75 6.75V9.375Z" fill="#121212"/>
</svg>
